<svg xmlns="http://www.w3.org/2000/svg" viewBox="0 0 100.72 82.18"><defs><style>.cls-1{fill:#fff;}</style></defs><g id="Layer_2" data-name="Layer 2"><g id="Layer_1-2" data-name="Layer 1"><path class="cls-1" d="M100.59,24.22l-24-24A.76.76,0,0,0,76.05,0H64.48L84.94,20.46H68a4.79,4.79,0,0,1-3.39-1.4C60.25,14.81,51.13,5.58,46.9,1.4A4.83,4.83,0,0,0,43.51,0H19.1a.48.48,0,0,0-.34.14C14.91,4,3.82,15.07.14,18.76a.47.47,0,0,0,0,.67L5.75,25,24.12,43.42a.8.8,0,0,0,.55.22H36.24L15.78,23.18h17.6a4.8,4.8,0,0,1,3.39,1.41L54.42,42.24a4.81,4.81,0,0,0,3.15,1.4c.3,0,21.1,0,23.94,0a.77.77,0,0,0,.54-.22L95,30.5l5.6-5.61A.47.47,0,0,0,100.59,24.22ZM78.63,35a.48.48,0,0,1-.34.14H61.15a4.79,4.79,0,0,1-3.39-1.4L40.1,16a4.81,4.81,0,0,0-3.38-1.4H16.15l5.94-5.94a.49.49,0,0,1,.34-.14H40.18A4.8,4.8,0,0,1,43.57,10L61.22,27.61A4.79,4.79,0,0,0,64.61,29h20Z"/><path class="cls-1" d="M.48,69.53V53.16a.29.29,0,0,1,.29-.29h4A.3.3,0,0,1,5,53l3.43,6.07a47,47,0,0,1,2.77,5.82h.07A66,66,0,0,1,11,57.81V53.16a.29.29,0,0,1,.29-.29h2.94a.29.29,0,0,1,.29.29V69.53a.29.29,0,0,1-.29.29H10.66a.29.29,0,0,1-.25-.15L6.86,63.29a64,64,0,0,1-2.95-6H3.83C4,59.56,4,62,4,64.72v4.81a.29.29,0,0,1-.29.29H.77A.29.29,0,0,1,.48,69.53Z"/><path class="cls-1" d="M26.66,62.65H21a.29.29,0,0,0-.29.28v3.46a.29.29,0,0,0,.29.29h6.39a.29.29,0,0,1,.29.29v2.56a.29.29,0,0,1-.29.29H17.16a.29.29,0,0,1-.28-.29V53.16a.29.29,0,0,1,.28-.29H27a.29.29,0,0,1,.29.29v2.56A.29.29,0,0,1,27,56H21a.29.29,0,0,0-.29.28v3a.29.29,0,0,0,.29.29h5.66a.29.29,0,0,1,.29.29v2.53A.29.29,0,0,1,26.66,62.65Z"/><path class="cls-1" d="M33.29,56.08h-4A.28.28,0,0,1,29,55.8V53.16a.29.29,0,0,1,.29-.29H41.76a.29.29,0,0,1,.29.29V55.8a.28.28,0,0,1-.29.28H37.7a.29.29,0,0,0-.29.29V69.53a.29.29,0,0,1-.29.29H33.87a.29.29,0,0,1-.29-.29V56.37A.29.29,0,0,0,33.29,56.08Z"/><path class="cls-1" d="M43.67,66.21a.3.3,0,0,1,.41-.19,9.52,9.52,0,0,0,3.93.91c1.76,0,2.69-.73,2.69-1.85s-.81-1.65-2.84-2.37c-2.82-1-4.67-2.54-4.67-5,0-2.89,2.43-5.09,6.41-5.09a10.1,10.1,0,0,1,4.1.76.27.27,0,0,1,.16.33l-.69,2.51a.29.29,0,0,1-.39.19,8.21,8.21,0,0,0-3.24-.67c-1.67,0-2.46.78-2.46,1.64,0,1.08.94,1.56,3.14,2.39,3,1.12,4.39,2.68,4.39,5.07,0,2.83-2.17,5.26-6.84,5.26a11.4,11.4,0,0,1-4.58-.94.3.3,0,0,1-.15-.33Z"/><path class="cls-1" d="M72.72,61.17c0,5.56-3.36,8.92-8.31,8.92s-8-3.8-8-8.63c0-5.07,3.26-8.87,8.25-8.87C69.88,52.59,72.72,56.48,72.72,61.17Zm-12.25.22c0,3.32,1.57,5.66,4.13,5.66s4.07-2.45,4.07-5.75c0-3-1.45-5.66-4.08-5.66S60.47,58.09,60.47,61.39Z"/><path class="cls-1" d="M75.54,52.87h9.77a.29.29,0,0,1,.29.29v2.56a.29.29,0,0,1-.29.29H79.37a.29.29,0,0,0-.29.28v3.32a.29.29,0,0,0,.29.28h5.52a.29.29,0,0,1,.29.29v2.53a.29.29,0,0,1-.29.29H79.37a.29.29,0,0,0-.29.29v6.24a.29.29,0,0,1-.29.29H75.54a.29.29,0,0,1-.29-.29V53.16A.29.29,0,0,1,75.54,52.87Z"/><path class="cls-1" d="M91.49,56.08h-4a.28.28,0,0,1-.29-.28V53.16a.29.29,0,0,1,.29-.29H100a.29.29,0,0,1,.29.29V55.8a.28.28,0,0,1-.29.28H95.89a.29.29,0,0,0-.28.29V69.53a.29.29,0,0,1-.29.29H92.06a.29.29,0,0,1-.29-.29V56.37A.28.28,0,0,0,91.49,56.08Z"/><path class="cls-1" d="M.69,80.86a.13.13,0,0,1,.2-.08,3.83,3.83,0,0,0,1.66.4c1,0,1.51-.47,1.51-1.17s-.41-1-1.41-1.4C1.39,78.16.59,77.49.59,76.41s1-2.15,2.61-2.15a4,4,0,0,1,1.65.32.15.15,0,0,1,.08.18l-.22.69a.16.16,0,0,1-.2.09,3.1,3.1,0,0,0-1.34-.29c-1,0-1.36.54-1.36,1,0,.65.45,1,1.49,1.37,1.32.51,2,1.15,2,2.27s-.9,2.26-2.8,2.26a4.39,4.39,0,0,1-1.92-.44.15.15,0,0,1-.07-.16Z"/><path class="cls-1" d="M18.3,78.14c0,2.61-1.58,4-3.61,4s-3.5-1.61-3.5-3.9,1.5-4,3.6-4S18.3,75.91,18.3,78.14Zm-5.85.12c0,1.6.85,3,2.3,3s2.29-1.35,2.29-3c0-1.49-.76-3-2.28-3S12.45,76.63,12.45,78.26Z"/><path class="cls-1" d="M24.55,74.38h.91a.15.15,0,0,1,.15.15v6.38a.14.14,0,0,0,.14.14h2.93a.15.15,0,0,1,.15.15v.71a.15.15,0,0,1-.15.15H24.55a.15.15,0,0,1-.14-.15V74.53A.15.15,0,0,1,24.55,74.38Z"/><path class="cls-1" d="M36.63,74.38a.15.15,0,0,1,.15.15v4.36c0,1.61.69,2.32,1.68,2.32s1.74-.72,1.74-2.32V74.53a.15.15,0,0,1,.15-.15h.91a.15.15,0,0,1,.14.15v4.28c0,2.37-1.23,3.37-3,3.37s-2.84-.94-2.84-3.34V74.53a.15.15,0,0,1,.14-.15Z"/><path class="cls-1" d="M49.61,75.39h-2a.14.14,0,0,1-.14-.14v-.72a.15.15,0,0,1,.14-.15h5.46a.15.15,0,0,1,.15.15v.72a.15.15,0,0,1-.15.14h-2a.15.15,0,0,0-.15.14v6.38a.15.15,0,0,1-.14.15H49.9a.15.15,0,0,1-.15-.15V75.53A.14.14,0,0,0,49.61,75.39Z"/><path class="cls-1" d="M62.83,74.53v7.38a.15.15,0,0,1-.14.15h-.91a.15.15,0,0,1-.15-.15V74.53a.15.15,0,0,1,.15-.15h.91A.15.15,0,0,1,62.83,74.53Z"/><path class="cls-1" d="M77.66,78.14c0,2.61-1.58,4-3.61,4s-3.5-1.61-3.5-3.9,1.5-4,3.6-4S77.66,75.91,77.66,78.14Zm-5.85.12c0,1.6.85,3,2.3,3s2.29-1.35,2.29-3c0-1.49-.76-3-2.28-3S71.81,76.63,71.81,78.26Z"/><path class="cls-1" d="M83,81.91V74.53a.15.15,0,0,1,.15-.15h1.12a.14.14,0,0,1,.12.07L86.58,78a21.64,21.64,0,0,1,1.34,2.54h0c-.09-1-.11-2-.11-3.17v-2.8a.15.15,0,0,1,.14-.15h.83a.15.15,0,0,1,.14.15v7.38a.15.15,0,0,1-.14.15h-1a.15.15,0,0,1-.12-.07l-2.18-3.57a25.41,25.41,0,0,1-1.4-2.6h0c.06,1,.08,2,.08,3.21v2.87a.15.15,0,0,1-.15.15h-.82A.15.15,0,0,1,83,81.91Z"/><path class="cls-1" d="M95.66,80.86a.15.15,0,0,1,.21-.08,3.8,3.8,0,0,0,1.66.4c1,0,1.5-.47,1.5-1.17s-.4-1-1.41-1.4c-1.26-.45-2.05-1.12-2.05-2.2s1-2.15,2.6-2.15a4,4,0,0,1,1.66.32.16.16,0,0,1,.07.18l-.22.69a.14.14,0,0,1-.19.09,3.15,3.15,0,0,0-1.35-.29c-1,0-1.36.54-1.36,1,0,.65.46,1,1.5,1.37,1.32.51,2,1.15,2,2.27s-.9,2.26-2.8,2.26a4.44,4.44,0,0,1-1.93-.44.14.14,0,0,1-.06-.16Z"/></g></g></svg>