<svg xmlns="http://www.w3.org/2000/svg" viewBox="0 0 217 43.86"><defs><style>.cls-1{fill:#fff;}</style></defs><g id="Layer_2" data-name="Layer 2"><g id="Layer_1-2" data-name="Layer 1"><path class="cls-1" d="M2.63,27.9a7.94,7.94,0,0,0,1.88,1.15,14.17,14.17,0,0,0,2.21.79A21,21,0,0,0,9,30.31a15,15,0,0,0,2,.16h.95c.35,0,.74,0,1.17,0l1.31-.14a9.59,9.59,0,0,0,1.32-.24,11.67,11.67,0,0,0,1.27-.4A4.34,4.34,0,0,0,18.13,29,3.34,3.34,0,0,0,19,28a2.8,2.8,0,0,0,.32-1.37,2,2,0,0,0-.34-1.19,2.84,2.84,0,0,0-.83-.79A4,4,0,0,0,17,24.18a12,12,0,0,0-1.21-.26,21.12,21.12,0,0,0-3-.27c-1.12,0-2.27-.1-3.44-.21A28.71,28.71,0,0,1,6,22.94a9.19,9.19,0,0,1-2.79-1,5.3,5.3,0,0,1-1.9-1.83,5.45,5.45,0,0,1-.7-2.91,5.37,5.37,0,0,1,1-3.33,7,7,0,0,1,2.51-2.1,11.67,11.67,0,0,1,3.44-1.11,21.57,21.57,0,0,1,3.72-.32,13.6,13.6,0,0,1,2.74.29,22,22,0,0,1,2.91.78,23.64,23.64,0,0,1,2.8,1.17A17.6,17.6,0,0,1,22.17,14l-2.63,1.89a8.45,8.45,0,0,0-1.86-1.1,15.07,15.07,0,0,0-2.2-.77,15.45,15.45,0,0,0-2.25-.45,14.88,14.88,0,0,0-2-.15h-1l-1,0c-.58.07-1.18.16-1.8.29a6.58,6.58,0,0,0-1.7.6,3.49,3.49,0,0,0-1.26,1.09A3,3,0,0,0,4,17.31a2.37,2.37,0,0,0,.3,1.22,2.8,2.8,0,0,0,.79.85,4.11,4.11,0,0,0,1.11.55,9,9,0,0,0,1.26.33,21.52,21.52,0,0,0,3,.34c1.13,0,2.29.13,3.49.24a28.48,28.48,0,0,1,3.38.45,9.88,9.88,0,0,1,2.78,1,4.69,4.69,0,0,1,2.56,4.49,5.18,5.18,0,0,1-1.12,3.48,7.55,7.55,0,0,1-2.84,2.07,13.88,13.88,0,0,1-3.79,1,28.92,28.92,0,0,1-4,.28,14.31,14.31,0,0,1-2.74-.28,19.12,19.12,0,0,1-2.9-.77A24.07,24.07,0,0,1,2.5,31.36,18.09,18.09,0,0,1,0,29.89Z"/><path class="cls-1" d="M27.85,10.77H42.64a12,12,0,0,1,3.27.43,7.7,7.7,0,0,1,2.69,1.33,6.3,6.3,0,0,1,1.82,2.26,7.29,7.29,0,0,1,.65,3.2c0,2.54-.65,4.41-2,5.59a8.21,8.21,0,0,1-5.71,1.78H30.86V33.1h-3ZM43.41,22.25a5.15,5.15,0,0,0,3.25-1A3.92,3.92,0,0,0,47.9,18,3.54,3.54,0,0,0,47.39,16a4.22,4.22,0,0,0-1.3-1.26,5.79,5.79,0,0,0-1.69-.69,7.34,7.34,0,0,0-1.67-.21H30.86v8.37Z"/><path class="cls-1" d="M78.5,10.77H92.78a14.26,14.26,0,0,1,3.27.35,7.85,7.85,0,0,1,2.7,1.15,5.64,5.64,0,0,1,1.81,2.09,6.81,6.81,0,0,1,.66,3.14,8.75,8.75,0,0,1-.53,3.2,5.32,5.32,0,0,1-1.52,2.16,6.3,6.3,0,0,1-2.44,1.22,12.51,12.51,0,0,1-3.24.39h-1.7L101,33.1h-4.5L87.3,24.47H81.52V33.1h-3Zm15,10.55a10.62,10.62,0,0,0,1.72-.13,3.48,3.48,0,0,0,1.44-.54,2.85,2.85,0,0,0,1-1.17,4.57,4.57,0,0,0,.37-2,3.14,3.14,0,0,0-.46-1.76,3.31,3.31,0,0,0-1.21-1.11A5.36,5.36,0,0,0,94.72,14a10,10,0,0,0-1.78-.16H81.52v7.44Z"/><path class="cls-1" d="M107.22,10.77h3V26.9l14.28-16.13h4.14L118.57,22.09l10.85,11h-4.33l-8.54-8.7-7.7,8.7h-1.63Z"/><path class="cls-1" d="M135.51,10.77H150.3a12,12,0,0,1,3.28.43,7.79,7.79,0,0,1,2.69,1.33,6.17,6.17,0,0,1,1.81,2.26,7.29,7.29,0,0,1,.66,3.2c0,2.54-.65,4.41-2,5.59a8.18,8.18,0,0,1-5.71,1.78H138.53V33.1h-3Zm15.56,11.48a5.16,5.16,0,0,0,3.26-1,4,4,0,0,0,1.24-3.3,3.54,3.54,0,0,0-.52-1.95,4,4,0,0,0-1.3-1.26,5.62,5.62,0,0,0-1.68-.69,7.4,7.4,0,0,0-1.67-.21H138.53v8.37Z"/><path class="cls-1" d="M163.91,10.77h14.27a14.41,14.41,0,0,1,3.28.35,7.88,7.88,0,0,1,2.69,1.15A5.64,5.64,0,0,1,186,14.36a6.81,6.81,0,0,1,.66,3.14,8.75,8.75,0,0,1-.53,3.2,5.32,5.32,0,0,1-1.52,2.16,6.3,6.3,0,0,1-2.44,1.22,12.4,12.4,0,0,1-3.24.39h-1.7l9.24,8.63h-4.49l-9.24-8.63h-5.78V33.1h-3Zm15,10.55a10.62,10.62,0,0,0,1.72-.13,3.48,3.48,0,0,0,1.44-.54,3,3,0,0,0,1-1.17,4.73,4.73,0,0,0,.36-2,3.14,3.14,0,0,0-.46-1.76,3.36,3.36,0,0,0-1.2-1.11,5.51,5.51,0,0,0-1.66-.56,10,10,0,0,0-1.78-.16H166.92v7.44Z"/><path class="cls-1" d="M191.63,25.81a12.75,12.75,0,0,1-.49-1.94,12,12,0,0,1-.19-2,11.4,11.4,0,0,1,.11-1.4,12.31,12.31,0,0,1,.28-1.42,10.72,10.72,0,0,1,1.76-3.9,11.14,11.14,0,0,1,2.9-2.75,13.15,13.15,0,0,1,3.73-1.62,17.63,17.63,0,0,1,8.5,0A13,13,0,0,1,212,12.43a10.71,10.71,0,0,1,4.64,6.65c.1.4.2.88.28,1.42a8.75,8.75,0,0,1,.13,1.4,11,11,0,0,1-.19,2,11.61,11.61,0,0,1-.51,1.94,10.14,10.14,0,0,1-1.93,3.48,10.77,10.77,0,0,1-2.89,2.41,12.9,12.9,0,0,1-3.56,1.4,17.65,17.65,0,0,1-7.92,0,13,13,0,0,1-3.56-1.4,10.92,10.92,0,0,1-2.89-2.41A10.29,10.29,0,0,1,191.63,25.81Zm2.56-3.91a7.75,7.75,0,0,0,.87,3.75,8.25,8.25,0,0,0,2.26,2.67,10,10,0,0,0,3.14,1.58,11.92,11.92,0,0,0,7,0,9.72,9.72,0,0,0,3.13-1.58,8.2,8.2,0,0,0,2.24-2.67,7.75,7.75,0,0,0,.87-3.75,7.62,7.62,0,0,0-.87-3.71,8.13,8.13,0,0,0-2.26-2.64,10.21,10.21,0,0,0-3.13-1.61A11.65,11.65,0,0,0,204,13.4a11.9,11.9,0,0,0-3.52.54,10.26,10.26,0,0,0-3.14,1.61,8.25,8.25,0,0,0-2.26,2.64A7.62,7.62,0,0,0,194.19,21.9Z"/><polyline class="cls-1" points="68.71 0 54.47 21.16 75.08 21.16 57.8 43.86"/></g></g></svg>