<svg xmlns="http://www.w3.org/2000/svg" viewBox="0 0 147.81 50.24"><defs><style>.cls-1{fill:#fff;}</style></defs><g id="Layer_2" data-name="Layer 2"><g id="Layer_1-2" data-name="Layer 1"><path class="cls-1" d="M29.93,2.84h5.89V36.7H29.93V30.87q-4.41,6.71-12.8,6.71A16.25,16.25,0,0,1,5,32.4,17.49,17.49,0,0,1,0,19.77,17.51,17.51,0,0,1,5,7.14,16.25,16.25,0,0,1,17.13,2q8.4,0,12.8,6.71ZM17.87,31.89a11.59,11.59,0,0,0,8.6-3.49,11.75,11.75,0,0,0,3.46-8.63,11.75,11.75,0,0,0-3.46-8.63,11.59,11.59,0,0,0-8.6-3.49,11.53,11.53,0,0,0-8.53,3.49,11.78,11.78,0,0,0-3.45,8.63A11.78,11.78,0,0,0,9.34,28.4,11.53,11.53,0,0,0,17.87,31.89Z"/><path class="cls-1" d="M57.87,2A16.25,16.25,0,0,1,70,7.14a17.51,17.51,0,0,1,5,12.63A17.49,17.49,0,0,1,70,32.4a16.25,16.25,0,0,1-12.12,5.18q-8.4,0-12.8-6.71V50.24H39.18V2.84h5.89V8.67Q49.48,2,57.87,2Zm-.75,29.93a11.54,11.54,0,0,0,8.54-3.49,11.78,11.78,0,0,0,3.45-8.63,11.78,11.78,0,0,0-3.45-8.63,11.54,11.54,0,0,0-8.54-3.49,11.57,11.57,0,0,0-8.59,3.49,11.75,11.75,0,0,0-3.46,8.63,11.75,11.75,0,0,0,3.46,8.63A11.57,11.57,0,0,0,57.12,31.89Z"/><path class="cls-1" d="M147.81,36.7H140.9l-9.48-12.8-9.55,12.8H115l13-17.4L115.71,2.84h7l8.73,11.78,8.73-11.78h6.91L134.87,19.23Z"/><path class="cls-1" d="M85.45,22.93q0,9.67,8.2,9.67c4.73,0,10.9-3.19,16.61-7.7s12.11-11.36,18.26-22.06h4.58a86.29,86.29,0,0,1-22.38,26.75q-10.36,7.94-19.65,7.93a12,12,0,0,1-9.41-3.83q-3.45-3.84-3.45-10.48a23.35,23.35,0,0,1,6.26-16.4A19.79,19.79,0,0,1,99.56,0a10.29,10.29,0,0,1,6.83,2.15A7.11,7.11,0,0,1,109,7.9q0,5.91-7.12,10.47A29.72,29.72,0,0,1,85.45,22.93Zm.26-3.17a21.53,21.53,0,0,0,11.85-4q4.95-3.59,5-8.31,0-4.22-3.77-4.22-4.5,0-8.3,4.82A23.48,23.48,0,0,0,85.71,19.76Z"/></g></g></svg>