<svg xmlns="http://www.w3.org/2000/svg" viewBox="0 0 142.64 66.08"><defs><style>.cls-1{fill:#fff;}</style></defs><g id="Layer_2" data-name="Layer 2"><g id="Layer_1-2" data-name="Layer 1"><path class="cls-1" d="M25.92,41.68c0,10.24-6,14.16-14.4,14.16-6.16,0-9.84-2.48-11-9.84h2c1,6.56,4.16,8.16,9,8.16,3.44,0,6.16-2.8,6.16-12.24,0-7.2-.64-13.12-5.44-16.32C6.48,22.24,0,18.16,0,10.72,0,4.32,4.56,0,13,0c6,0,9.44,5.28,9.44,11.36-.8,0-1,.08-1.76.08-.16-4.16-2.56-9.84-7.76-9.84-3.44,0-4.72,3-4.72,9,.16,6.72,1,9.52,5.52,12.88C16.88,25.76,25.92,32.16,25.92,41.68Z"/><path class="cls-1" d="M29,24a13.36,13.36,0,0,1,6.48-11.52L29,12.56V8.16C35.6,8.16,35.44,0,35.44,0H37.2V49.12c0,4.88,3.12,5,3.12,5v1.68C30,55.84,29,49.44,29,43.52Z"/><path class="cls-1" d="M42.64,8.08h8.24c.32,12.16-.08,27.2-.08,38.24,0,5,2.08,6.32,4,6.32,2.08,0,4-1.76,5.44-3.76V8.08h8.24c.64,13.52,0,31,0,47.76.08,6.4-4,10.24-10.32,10.24-3.36,0-6.08-2.4-8.08-4.88l1.36-1.12c1.36,1.52,3,2.72,4.64,2.72,1.92,0,4.08-1.28,4.08-6.4,0-1.36.08-3.76.08-4.64-1.92,2.24-4.4,4.16-7.52,4.16-6.4,0-10.08-3.84-10.08-10.32Z"/><path class="cls-1" d="M85.2,54.16v1.68c-10.32,0-11.36-6.4-11.36-12.32V8.16C80.48,8.16,80.4,0,80.4,0h1.68V49.12C82.08,54,85.2,54.16,85.2,54.16Z"/><path class="cls-1" d="M95.76,8.08c.32,12.16-.08,27.2-.08,38.24,0,5,2.08,6.4,4.08,6.4s3.92-1.84,5.36-3.76V8.08h8.24V55.84h-8.24V51.76c-1.92,2.24-4.4,4.16-7.52,4.16-6.4,0-10.08-3.76-10.08-10.32V8.08Z"/><path class="cls-1" d="M125.44,32.08l-9-23.76h8.24l7.92,22.16L134.4,8.32h8.24l-9,23.76,9,23.84H134.4L126.4,34l-1.68,21.92h-8.24Z"/></g></g></svg>