<svg xmlns="http://www.w3.org/2000/svg" viewBox="0 0 202.51 39.79"><defs><style>.cls-1{fill:#fff;}</style></defs><g id="Layer_2" data-name="Layer 2"><g id="Layer_1-2" data-name="Layer 1"><path class="cls-1" d="M20.09,1.54,10.48,7.08,27,35.64a8.32,8.32,0,0,0,11.36,3l4.8-2.77L23.87,2.55A2.76,2.76,0,0,0,20.09,1.54Z"/><path class="cls-1" d="M66,35.88,46.74,2.55a2.76,2.76,0,0,0-3.78-1L33.38,7.06a0,0,0,0,0,0,.05L49.84,35.64a8.32,8.32,0,0,0,11.36,3L66,35.92S66,35.89,66,35.88Z"/><path class="cls-1" d="M9.6,23.11,0,28.66l4.16,7.2a5.54,5.54,0,0,0,7.57,2l7.2-4.16-5.54-9.6A2.78,2.78,0,0,0,9.6,23.11Z"/><path class="cls-1" d="M106.6,8V33.93h-6.31V18.39l-5.8,15.54H89.4L83.57,18.35V33.93H77.26V8h7.45L92,26,99.18,8Z"/><path class="cls-1" d="M111.08,18a8.93,8.93,0,0,1,3.27-3.69A8.5,8.5,0,0,1,119,13a7.84,7.84,0,0,1,3.82.89,6.54,6.54,0,0,1,2.53,2.32V13.33h6.31v20.6h-6.31V31a6.83,6.83,0,0,1-2.57,2.33,7.92,7.92,0,0,1-3.82.88,8.29,8.29,0,0,1-4.57-1.31,9,9,0,0,1-3.27-3.72,12.47,12.47,0,0,1-1.2-5.6A12.31,12.31,0,0,1,111.08,18ZM124,19.9a4.44,4.44,0,0,0-6.39,0,5.08,5.08,0,0,0-1.31,3.7,5.24,5.24,0,0,0,1.31,3.75,4.41,4.41,0,0,0,6.39,0,5.17,5.17,0,0,0,1.31-3.73A5.19,5.19,0,0,0,124,19.9Z"/><path class="cls-1" d="M145.46,28l4.46-14.69h6.72l-7.31,20.6h-7.78l-7.31-20.6H141Z"/><path class="cls-1" d="M178.6,25.14H164.32a4.3,4.3,0,0,0,1.23,2.94,3.82,3.82,0,0,0,2.68,1,3.31,3.31,0,0,0,3.28-2h6.72a9.38,9.38,0,0,1-1.86,3.65A9.26,9.26,0,0,1,173,33.3a10.8,10.8,0,0,1-4.54.92,11.07,11.07,0,0,1-5.39-1.29,9.23,9.23,0,0,1-3.69-3.69A11.35,11.35,0,0,1,158,23.63,11.57,11.57,0,0,1,159.35,18,9.12,9.12,0,0,1,163,14.33a12,12,0,0,1,10.74,0,9.09,9.09,0,0,1,3.64,3.58,10.91,10.91,0,0,1,1.31,5.43A16.94,16.94,0,0,1,178.6,25.14Zm-6.35-3.5a3.24,3.24,0,0,0-1.11-2.58,4.05,4.05,0,0,0-2.76-1,4,4,0,0,0-2.68.92,4.06,4.06,0,0,0-1.35,2.62Z"/><path class="cls-1" d="M200.35,15.46a9.14,9.14,0,0,1,2.16,6.44v12h-6.27V22.75a4.57,4.57,0,0,0-1.07-3.22,4.21,4.21,0,0,0-5.76,0,4.57,4.57,0,0,0-1.07,3.22V33.93H182V13.33h6.31v2.74a6.68,6.68,0,0,1,2.58-2.16,8.23,8.23,0,0,1,3.66-.8A7.44,7.44,0,0,1,200.35,15.46Z"/><path class="cls-1" d="M157,.12V1.44h-2.18V8.31h-1.64V1.44h-2.19V.12Z"/><path class="cls-1" d="M163.79,8.31,162,5.12h-.78V8.31h-1.64V.12h3.08a3.66,3.66,0,0,1,1.62.33,2.4,2.4,0,0,1,1,.91,2.49,2.49,0,0,1,.34,1.27,2.45,2.45,0,0,1-.47,1.46,2.39,2.39,0,0,1-1.4.9l2,3.32ZM161.2,3.89h1.38a1.37,1.37,0,0,0,1-.33,1.18,1.18,0,0,0,.33-.89,1.15,1.15,0,0,0-.33-.88,1.41,1.41,0,0,0-1-.31H161.2Z"/><path class="cls-1" d="M170.14,1.44V3.5h2.76V4.8h-2.76V7h3.11V8.31H168.5V.11h4.75V1.44Z"/><path class="cls-1" d="M183.16,8.31h-1.64L177.8,2.69V8.31h-1.65V.11h1.65l3.72,5.63V.11h1.64Z"/><path class="cls-1" d="M191.33.62a3.62,3.62,0,0,1,1.51,1.44,4.26,4.26,0,0,1,.54,2.17,4.16,4.16,0,0,1-.54,2.15,3.6,3.6,0,0,1-1.51,1.43,4.84,4.84,0,0,1-2.27.5h-2.87V.12h2.87A5,5,0,0,1,191.33.62ZM191,6.21a2.68,2.68,0,0,0,.71-2,2.73,2.73,0,0,0-.71-2,2.62,2.62,0,0,0-2-.73h-1.16V6.92H189A2.69,2.69,0,0,0,191,6.21Z"/><path class="cls-1" d="M197.31,8.1a2.56,2.56,0,0,1-1.09-.84A2.24,2.24,0,0,1,195.81,6h1.76a1.1,1.1,0,0,0,.36.8,1.24,1.24,0,0,0,.89.3,1.38,1.38,0,0,0,.9-.28.88.88,0,0,0,.33-.72.83.83,0,0,0-.23-.6,1.44,1.44,0,0,0-.55-.37c-.23-.09-.53-.19-.92-.3a10.34,10.34,0,0,1-1.3-.46,2.32,2.32,0,0,1-.86-.7,2,2,0,0,1-.36-1.24,2.15,2.15,0,0,1,.37-1.26,2.28,2.28,0,0,1,1-.83,3.75,3.75,0,0,1,1.5-.29,3.26,3.26,0,0,1,2.06.62,2.29,2.29,0,0,1,.88,1.72h-1.81a1,1,0,0,0-.36-.7,1.32,1.32,0,0,0-.89-.28,1.13,1.13,0,0,0-.77.25.88.88,0,0,0-.28.71.75.75,0,0,0,.21.55,1.68,1.68,0,0,0,.54.35,8.44,8.44,0,0,0,.91.31,11,11,0,0,1,1.31.47,2.55,2.55,0,0,1,.87.71,2,2,0,0,1,.36,1.23,2.27,2.27,0,0,1-.34,1.22,2.37,2.37,0,0,1-1,.9,3.45,3.45,0,0,1-1.56.34A3.78,3.78,0,0,1,197.31,8.1Z"/></g></g></svg>