<svg xmlns="http://www.w3.org/2000/svg" viewBox="0 0 220.36 97.84"><defs><style>.cls-1{fill:#fff;}</style></defs><g id="Layer_2" data-name="Layer 2"><g id="Layer_1-2" data-name="Layer 1"><path class="cls-1" d="M114.09,30.65v1.9A16.46,16.46,0,1,1,118.66,31V28.9a14.48,14.48,0,0,0,7-10.42A13.87,13.87,0,0,0,123.8,9a14.49,14.49,0,0,0-26.74,10,14.1,14.1,0,0,0,6.1,9.29A14.41,14.41,0,0,0,114.09,30.65Z"/><path class="cls-1" d="M99.27,45.27c-5.39-8-10.71-16-16-23.87l-.12.05,0,0a.69.69,0,0,0,0,.13l0,29.14a.36.36,0,0,1,0,.1H81.36c-.16-.5-.24-32.86-.08-35.47l.06,0h0a.12.12,0,0,1,0,0l.12.15q8.81,13.12,17.63,26.23s0,0,.13.08l6-8.89,1.87.54Z"/><path class="cls-1" d="M117.28,50.89h-1.81c-.06-2,0-3.91,0-5.86s0-4,0-5.93V21.47l-.14,0-5.53,8.23-2-.37,8-12h8.82L124.43,19h-7.15Z"/><path class="cls-1" d="M82.69,85.61l.2-2.35a5.08,5.08,0,0,0-2.71-1.43c-.72-.14-1.46-.19-2.19-.28a3.09,3.09,0,0,1-1.48-.33.64.64,0,0,1,.09-.81,10.2,10.2,0,0,1,.87-.87,22.06,22.06,0,0,1,5.34-3.09l.75-.33c-.25-1-.64-1-2-.44l-.26-.33c.88-1.28,2.47-1.11,3.3.33.17,0,.36-.08.54-.14a22.6,22.6,0,0,1,4.31-1,10.79,10.79,0,0,1,4.45.34,5.41,5.41,0,0,1,3.81,3.69,6.61,6.61,0,0,1,0,3.61,12.19,12.19,0,0,1-1.67,3.58,31,31,0,0,1-5.78,6.42,27.85,27.85,0,0,1-6.24,4.22,14.35,14.35,0,0,1-5.64,1.41,5.54,5.54,0,0,1-2.24-.38,2.31,2.31,0,0,1-1.6-2.41,5.27,5.27,0,0,1,.67-2.36A15.07,15.07,0,0,1,79,88.18,21,21,0,0,1,82.69,85.61Zm0,.75c-.17.07-.25.09-.32.13a19.38,19.38,0,0,0-5.94,5.39,6.73,6.73,0,0,0-1.23,2.77A1.9,1.9,0,0,0,76.66,97a7.26,7.26,0,0,0,1.61.22,12.29,12.29,0,0,0,5.92-1.56,27.94,27.94,0,0,0,6.65-5A27.23,27.23,0,0,0,95.51,85,10.49,10.49,0,0,0,97,80.89a4.67,4.67,0,0,0-2.88-5,8.05,8.05,0,0,0-2.2-.54,16.27,16.27,0,0,0-7,1,.79.79,0,0,0-.15.12A49.33,49.33,0,0,1,84,83.53l.67,1,.83-.37a19.08,19.08,0,0,1,3.86-1.37,6.66,6.66,0,0,1,1.48-.1.74.74,0,0,1,.72.64c0,.34-.11.51-.64.76l.07-.77c-1-.35-4.51.69-6.06,1.81a10.22,10.22,0,0,1,.81,4.57,7.1,7.1,0,0,1-.57,3,.8.8,0,0,1-1.51.12,2.7,2.7,0,0,1-.31-.64c-.15-.5-.29-1-.4-1.51A17.48,17.48,0,0,1,82.68,86.36Zm1-9.42h-.26l-.84.35a21.08,21.08,0,0,0-5,3c-.17.15-.4.26-.44.58,2,.18,4.08.2,5.85,1.63Zm.07,8.8c0,2.24-.2,4.45.68,6.65.82-1.41.92-5.54-.19-7Z"/><path class="cls-1" d="M113.6,88.9c0,1.21.05,2.34,0,3.46a18.77,18.77,0,0,1-.39,2.57,1.07,1.07,0,0,1-.87.93,1.23,1.23,0,0,1-.93-.92,12.66,12.66,0,0,1-.79-4.27c0-.43,0-.86,0-1.31l-.49-.24a1.55,1.55,0,0,1-.86-2,4.66,4.66,0,0,1,1.21-2,1.13,1.13,0,0,0,.4-1V84.1c.28-.88-.2-1.42-.8-2a11.88,11.88,0,0,0-3.53-2,11.93,11.93,0,0,1-1.53-.73,1.4,1.4,0,0,1-.37-2.42,4.48,4.48,0,0,1,1.19-.88,14.3,14.3,0,0,1,4.12-1.38,15.06,15.06,0,0,1,6.34,0,7.86,7.86,0,0,1,3.23,1.48A4.68,4.68,0,0,1,121.22,81,7,7,0,0,1,120,83.68a13.73,13.73,0,0,1-6,5l-.41.19S113.59,88.9,113.6,88.9Zm-.11-.76L114,88a12.45,12.45,0,0,0,4.56-3.61A8.36,8.36,0,0,0,120,81.7a4.61,4.61,0,0,0,.31-2,4,4,0,0,0-2.22-3.24,8.57,8.57,0,0,0-3.73-1,18.23,18.23,0,0,0-6.19.68,8.72,8.72,0,0,0-2.69,1.12c-.93.64-.91,1.22.08,1.73.61.33,1.25.6,1.88.89a9.76,9.76,0,0,1,3.17,2A1.59,1.59,0,0,0,111,82c0-.8,0-1.53,0-2.27a6,6,0,0,0-.33-1.51c-.22-.59-.57-.66-1.13-.35a2.11,2.11,0,0,1-.49.14.6.6,0,0,1,.12-.87,1.63,1.63,0,0,1,2.57.39,3.39,3.39,0,0,1,.35,1,16.1,16.1,0,0,1,.18,4.16c0,.27,0,.54,0,.93.33-.19.58-.32.81-.47a10.11,10.11,0,0,1,2.75-1.32,3,3,0,0,1,1-.06c.28,0,.53.2.4.65l-.48-.06a1.77,1.77,0,0,0-.56,0,11.75,11.75,0,0,0-3.63,2Zm-1.09,6.79a13.38,13.38,0,0,0,.5-5.84l-1.13.27A13.93,13.93,0,0,0,112.4,94.93Zm.42-6.5a8.22,8.22,0,0,0-.8-2.93l-.25,3.18Zm-2.26.12.15-2.44a2.36,2.36,0,0,0-.86,1.36C109.71,88,109.91,88.3,110.56,88.55Z"/><path class="cls-1" d="M128.75,18.94l.16-1.64a7.63,7.63,0,0,1,3.16.32,9.84,9.84,0,0,1-1.36,19.16,6.33,6.33,0,0,1-1,.07H119.12l-.43,0a6,6,0,0,1,0-1.76h10.61a7.49,7.49,0,0,0,5.2-1.9,7.77,7.77,0,0,0,2.45-8.5,7.69,7.69,0,0,0-6.76-5.6C129.72,19,129.26,19,128.75,18.94Z"/><path class="cls-1" d="M127.23,86.1l-.63-.57a2.23,2.23,0,0,1-1.62.32c-.62-.21-.75-.79-1-1.36-.17.12-.31.21-.43.31l-.53.49a1,1,0,0,1-1,.27,1,1,0,0,1-.57-1,2.7,2.7,0,0,1,1.28-2.28,1.49,1.49,0,0,1,.81-.11c.53.08.69.61.39,1.19l-.59-.12-.81,1.27c.78-.17,1.13-1.12,2-.89.6.34.34,1.07.71,1.48.57,0,.59,0,1.18-.37,0-.47.08-1,.15-1.45s.25-.74,1-.71l.41.45.09-.17a6.47,6.47,0,0,1,.42-.88.67.67,0,0,1,1.21,0,3.56,3.56,0,0,1,.24.74c.1.3.19.61.3,1l1-.29c.37-1.19.49-1.29,1.19-1,.17.32.34.63.52,1l-.41.32a2.43,2.43,0,0,0-.1.55.67.67,0,0,0,1.09.64,3.36,3.36,0,0,0,.55-.46,5.91,5.91,0,0,0,.48-.52,4.79,4.79,0,0,0,.31-.39c0-.91.33-1.4,1.35-1.83a1.39,1.39,0,0,1,1.76.47l-.12,1.2c-.35.16-.61.11-.74-.21a5.7,5.7,0,0,1-.17-.83l-1,.81c.21.64.89.6,1.26,1l1.56-.34c.06-.58.1-1.16.16-1.73.18-1.66.36-3.33.56-5,.1-.77.34-.93,1-.79.35.3.27.69.2,1.08a56.71,56.71,0,0,0-.67,6.81c.13-.23.2-.34.27-.45a8.17,8.17,0,0,1,.56-.95,1,1,0,0,1,1.83.52,11.42,11.42,0,0,1,0,1.17,1.42,1.42,0,0,0,.25,1.15c.41.06.62-.21.82-.46.58-.7,1.15-1.41,1.75-2.15l.36.21a1.46,1.46,0,0,1-.14.39c-.55.73-1.1,1.46-1.67,2.17a1.62,1.62,0,0,1-.52.38,1,1,0,0,1-1.4-.39,6.33,6.33,0,0,1-.44-1.29c-.07-.29-.09-.59-.15-1a3.36,3.36,0,0,0-.39.41,7.09,7.09,0,0,0-.89,2.23c-.07.27-.1.56-.19.82a3.06,3.06,0,0,1-.31.54c-.5,0-.59-.35-.65-.64-.11-.59-.18-1.2-.27-1.8,0-.17,0-.34,0-.59l-1.06.26a1.59,1.59,0,0,1-2.52.63c.11-.46.11-.46,1.13-1l-.91-.44c-.28.32-.53.61-.8.89a5.59,5.59,0,0,1-.74.63,1.43,1.43,0,0,1-2.16-.54c-.13-.24-.23-.51-.34-.76-1.58.36-1.76.29-2.65-1.16-.14.37-.27.68-.37,1-.16.51-.31,1-.46,1.56A.69.69,0,0,1,127.23,86.1Z"/><path class="cls-1" d="M37.6,66.46l-2.1-2c-.06,1.27,0,2.44,0,3.67h-.87v-6l3,3,3-3v5.93h-.86V64.54l-.13-.07Z"/><path class="cls-1" d="M153.58,62.19a3,3,0,1,1-2.94,3.06A2.89,2.89,0,0,1,153.58,62.19Zm2,3a2,2,0,0,0-2-2.12,2,2,0,0,0-2.07,2.11,2,2,0,1,0,4,0Z"/><path class="cls-1" d="M141.64,65.2a3,3,0,1,1-3-3A2.91,2.91,0,0,1,141.64,65.2Zm-2.94-2.1a2.11,2.11,0,0,0-.09,4.22,2.07,2.07,0,0,0,2.09-2.11A2,2,0,0,0,138.7,63.1Z"/><path class="cls-1" d="M0,65.24a2.93,2.93,0,0,1,3-3,3,3,0,0,1,0,6A2.89,2.89,0,0,1,0,65.24Zm5,0a2,2,0,0,0-2-2.1,2.11,2.11,0,1,0,2,2.1Z"/><path class="cls-1" d="M163.92,66.82v-.93l-1.5-.09V65q1.14,0,2.37,0v2.26A3.35,3.35,0,0,1,161,68a3,3,0,0,1-1.6-3.27,2.77,2.77,0,0,1,2.06-2.37,3,3,0,0,1,3.09.81l-.65.63a2.28,2.28,0,0,0-1.94-.61,2,2,0,0,0-1.2.72,2.26,2.26,0,0,0,.09,2.82A2.29,2.29,0,0,0,163.92,66.82Z"/><path class="cls-1" d="M50.77,62.27a12.51,12.51,0,0,1,2.81.1,2.47,2.47,0,0,1,2,2.34,4.6,4.6,0,0,1,0,1.23,2.59,2.59,0,0,1-2.33,2.13,19.44,19.44,0,0,1-2.42,0Zm.91,4.93c1,.06,2,.13,2.67-.83a2.36,2.36,0,0,0,0-2.47c-.69-.88-1.65-.76-2.64-.69Z"/><path class="cls-1" d="M97,65.24l1.08,1.29.11,0v-1l.7-.27a1.92,1.92,0,0,1-.12,2.06l.62.82c-.49,0-.89.13-1.17-.12-.54.1-1,.21-1.51.27a1.58,1.58,0,0,1-.64-.09A1.55,1.55,0,0,1,94.83,67a1.57,1.57,0,0,1,.54-1.64l.34-.3c-.14-.37-.31-.73-.42-1.09a1.38,1.38,0,0,1,.6-1.53,1.6,1.6,0,0,1,1.72,0,1.39,1.39,0,0,1,.18,2A9.1,9.1,0,0,1,97,65.24Zm.54,1.93-1.34-1.56-.57.85C95.92,67.38,96.49,67.6,97.51,67.17Zm-1-2.59c.23-.24.45-.43.63-.66a.47.47,0,0,0,0-.69.78.78,0,0,0-.57-.16.53.53,0,0,0-.43.57A1.39,1.39,0,0,0,96.53,64.58Z"/><path class="cls-1" d="M76.83,64.44V68.1H76a43.67,43.67,0,0,1,0-5.85,9,9,0,0,1,1.32,1.22c.45.42.88.84,1.31,1.28s.82.88,1.3,1.39a3.31,3.31,0,0,0,.14-1.31c0-.42,0-.83,0-1.24V62.31H81v6c-1.41-1.32-2.69-2.62-4-3.9Z"/><path class="cls-1" d="M198.74,68.27l-4-3.91-.12,0v3.7h-.88v-6l4,4a12.92,12.92,0,0,0,.06-1.94c0-.6,0-1.21,0-1.86h.89Z"/><path class="cls-1" d="M219.17,66.08l1.19,2h-1l-1.08-1.72H217V68.1h-.88V62.3a14.64,14.64,0,0,1,2.39,0,2,2,0,0,1,1.09,3.27C219.51,65.75,219.35,65.9,219.17,66.08Zm-2.11-.64a2.32,2.32,0,0,0,1.36-.09,1.12,1.12,0,0,0,.71-1.31,1.08,1.08,0,0,0-1-.89c-.33,0-.67,0-1,0Z"/><path class="cls-1" d="M13.35,68.05a.77.77,0,0,1-.23.08h-.71l-1.09-1.75H10.08V68.1H9.17V62.29a16.67,16.67,0,0,1,2.35,0,2,2,0,0,1,1.15,3.28c-.14.16-.3.31-.47.49Zm-3.25-4.9v2.28a2.16,2.16,0,0,0,1.36-.08,1.15,1.15,0,0,0,.7-1.32,1,1,0,0,0-1-.88C10.8,63.13,10.47,63.15,10.1,63.15Z"/><path class="cls-1" d="M132.47,68.11h-.87V66a11.08,11.08,0,0,0-3.27,0v2.13h-.87V62.29h.85v2.63h3.24V62.3h.92Z"/><path class="cls-1" d="M212.88,67.25v.85h-3.36V62.3h3.35v.88h-2.39V65h2v.88h-2v1.41Z"/><path class="cls-1" d="M87.92,68.12H84.63V62.3h3.29v.87H85.53V65h2v.88h-2v1.41h2.38Z"/><path class="cls-1" d="M45.11,63.17V65h2v.86H45.12v1.41c.74.12,1.52,0,2.33.08v.79H44.12c0-1.91,0-3.83,0-5.8h3.36v.87Z"/><path class="cls-1" d="M106.44,62.26c.74,0,1.41,0,2.08,0a1.9,1.9,0,0,1,1.85,2,2,2,0,0,1-2,2.22c-.32,0-.64,0-1,.08v1.58h-.88Zm.91,3.41a7.11,7.11,0,0,0,1.31-.19,1.19,1.19,0,0,0,.76-1.41,1,1,0,0,0-1.14-.92h-.93Z"/><path class="cls-1" d="M187.17,62.29h3.31v.84h-2.39a8.61,8.61,0,0,0,0,1.83h2v.87h-2v1.43h2.4v.83h-3.32Z"/><path class="cls-1" d="M184,63.1l-.7.53a2.18,2.18,0,0,0-2-.44,2,2,0,0,0-1.08.78,2.22,2.22,0,0,0,.22,2.76c.76.79,1.8.77,3-.07l.33.28a3.33,3.33,0,0,1,.25.28,3,3,0,0,1-4.14.32,3.16,3.16,0,0,1-.25-4.39A3,3,0,0,1,184,63.1Z"/><path class="cls-1" d="M67.66,66.65l.57.55a3,3,0,0,1-4.1.39,3.16,3.16,0,0,1-.31-4.44,3,3,0,0,1,4.32-.08l-.73.53a2.11,2.11,0,0,0-3,.25,2.22,2.22,0,0,0,.1,2.82C65.35,67.52,66.34,67.53,67.66,66.65Z"/><path class="cls-1" d="M113.36,68.12h-1l2.77-6c1,2.05,1.86,4,2.77,6h-1l-.48-1h-2.63ZM115.11,64l-.91,2.23h1.89Z"/><path class="cls-1" d="M18.5,62.19l2.73,5.91h-1l-.48-1H17.14l-.5,1h-.85A46.62,46.62,0,0,1,18.5,62.19Zm.88,4a20.68,20.68,0,0,0-1-2.18c-.31.79-.66,1.44-.89,2.18Z"/><path class="cls-1" d="M122.52,68.11h-.9V63.2h-1.9v-.91h4.69c0,.17,0,.29,0,.42s0,.25,0,.44h-1.85C122.49,64.82,122.56,66.44,122.52,68.11Z"/><path class="cls-1" d="M167.17,62.28h1l1.59,2.78,1.59-2.78h1a2,2,0,0,1-.15.41c-.55.94-1.09,1.87-1.66,2.8a1.83,1.83,0,0,0-.28,1c0,.52,0,1,0,1.58h-.92c0-.47,0-.92,0-1.36A2.23,2.23,0,0,0,169,65.4c-.52-.83-1-1.67-1.5-2.51C167.38,62.71,167.3,62.52,167.17,62.28Z"/><path class="cls-1" d="M203.71,63.15H201.8V62.3h4.71v.84h-1.89v5h-.91Z"/><path class="cls-1" d="M145.77,67.24h2.51v.86h-3.41V62.3a4.43,4.43,0,0,1,.48,0,3.88,3.88,0,0,1,.42,0Z"/><path class="cls-1" d="M24.06,62.28H25c0,1.63,0,3.24,0,4.94h2.5v.88H24.07C24.06,66.18,24.06,64.26,24.06,62.28Z"/><path class="cls-1" d="M72.26,68.11h-.82V62.29h.77A42.27,42.27,0,0,1,72.26,68.11Z"/><path class="cls-1" d="M59.76,68.12l-.39,0H59a40.65,40.65,0,0,1,0-5.85c.12,0,.24,0,.37,0l.42,0Z"/><path class="cls-1" d="M99.57,85.57l-.24,1.31h-.65l-.18-.62a4.94,4.94,0,0,0-1.3,2.57h-.72c-.07-.19-.21-.37-.19-.54A8.44,8.44,0,0,1,97,85.55a.8.8,0,0,1,1,.17C98.93,85.16,98.93,85.16,99.57,85.57Z"/><path class="cls-1" d="M100.48,87.59c.62,0,1,.22,1,.74A.65.65,0,0,1,101,89a.61.61,0,0,1-.73-.39A.82.82,0,0,1,100.48,87.59Z"/><path class="cls-1" d="M131.92,81c.49-.09.49-.09.83.24a.54.54,0,0,1-.48.64.55.55,0,0,1-.45-.15A.49.49,0,0,1,131.92,81Z"/></g></g></svg>