<svg xmlns="http://www.w3.org/2000/svg" viewBox="0 0 284.99 48.57"><defs><style>.cls-1,.cls-2{fill:#fff;}.cls-1{fill-rule:evenodd;}</style></defs><g id="Layer_2" data-name="Layer 2"><g id="Layer_1-2" data-name="Layer 1"><path class="cls-1" d="M4.86,0A2.55,2.55,0,0,1,6.55.76a9.91,9.91,0,0,1,1.74,2c.37.48.76.94,1.13,1.41a3,3,0,0,0,1.65,1.23c.43,0,.58-.39.68-.68.26-.76.25-1.8.56-2.51.11-.25.3-.55.69-.47,1.4.31,1.76,2.9,2.23,4,.16.39.59,1.43,1.19,1.31,1.39-.29,1-2.55,1.44-3.77.32-.85,1-.77,1.65-.28a3.25,3.25,0,0,1,1,2.21l0,.54V7.42c0,.46,0,.93-.05,1.39v.74a8,8,0,0,0,0,.85c.1.87.22,1.89,1,2.21a1.22,1.22,0,0,0,1.12-.2c.67-.49.89-1.45,1.43-2.07a1,1,0,0,1,1.37-.26c.78.49.86,1.88.86,3.14v.87l0,1.06v.13l0,.89a8.87,8.87,0,0,0,.12,1.71c.06.61.09,1.22.2,1.83a25.36,25.36,0,0,0,.79,3.68,4.82,4.82,0,0,0,1.24,2.32,1,1,0,0,0,.89.33c.73-.18.62-1.28,1.08-1.47.07,0,.14,0,.2,0s-.09.77-.21,1c-.46.88-1.21,1.46-2.15.63A10.06,10.06,0,0,1,26.69,23c-.63-1.48-1.9-3.62-3.21-4.41l-.65-.27c-1-.32-1.66.45-2.4.68-.44.14-1.29.18-1.56-.14A6.4,6.4,0,0,1,18,16.61,21.6,21.6,0,0,0,16.47,12a3.69,3.69,0,0,0-.91-1.27c-.49-.32-1,.2-1.16.5-.58,1-.55,2.92-1.8,3.13-.75.13-1.32-.64-1.61-1-.78-1-1.47-2.68-2.71-3-1.48-.41-3.91.09-4-1,0-.72,1.07-.54,1.7-.6.82-.08,1.25-.08,1.52-.73.33-.81-.34-1.32-.66-1.73A15.3,15.3,0,0,1,4.59,2.46C4.41,2,4,.86,4.33.3A.73.73,0,0,1,4.86,0Z"/><path class="cls-1" d="M.86,11.64a2.6,2.6,0,0,1,1.71.73A15.63,15.63,0,0,1,5.31,15.2c.4.51.82,1.2,1.57,1.36,1.34.27,1-1.56,1.2-2.59.08-.5,0-1.32.68-1.2a1.94,1.94,0,0,1,1,.79A6.74,6.74,0,0,1,10.69,15a16.46,16.46,0,0,0,.77,1.64c.22.38.52,1.32,1.19,1.19,1.12-.21,1-2.49,1.34-3.54.13-.35.4-1.08,1-1,.72.15,1.11,1.18,1.33,1.88.68,2.18.28,5.93,1.41,7.61.4.6,1.18.27,1.59-.06.75-.6.94-1.73,1.53-2.49a.72.72,0,0,1,1.12-.05A4.48,4.48,0,0,1,23,22.94l.15,1.38c0,.66.07,1.33.11,2l.14,1.38a9.33,9.33,0,0,0,.29,1.47,4.12,4.12,0,0,0,.72,1.24c.93,1.24,3.55,1.52,5.66,1.46h.73l1.29,0c.28,0,.63,0,.74.17s-.18.34-.33.39a7.52,7.52,0,0,1-1.89.13l-.55,0-.66-.07a24.83,24.83,0,0,1-3-.32l-1.25-.37a3.37,3.37,0,0,0-1.6-.29c-1.89.24-2.71,1.06-4.11,1.71a14.68,14.68,0,0,1-3.23.94A7.3,7.3,0,0,1,12.37,34c-.32-.14-1.34-.9-.75-1.35.74-.56,3.46-1,2.21-2.55a1.48,1.48,0,0,0-.26-.24,5.57,5.57,0,0,0-2.67-.62c-1.65-.25-3.34-.45-4.83-.83-.79-.2-1.88-.47-2.16-1.16s.46-.73.89-.81c1.12-.18,1.83-.1,2.48-.75a.64.64,0,0,0,.25-.36.31.31,0,0,0,0-.13c-.38-.61-1.67-.89-2.38-1.17a15.78,15.78,0,0,1-3.7-1.84,3.44,3.44,0,0,1-.76-.66c-.33-.43-.35-1,.24-1.17,1-.3,3.35.29,3.57-.73.13-.6-.74-1.32-1-1.63L2.3,16.7A23.18,23.18,0,0,1,.59,14.26c-.24-.39-.84-1.52-.47-2.13a.92.92,0,0,1,.74-.49Z"/><path class="cls-2" d="M41.47,6.12h14.3v4.15H50.93V35.18H46.3V10.27H41.47Z"/><path class="cls-2" d="M62.41,35.18H57.78V6.12h4.63V18.57h5.26V6.12h4.71V35.18H67.67V22.72H62.41Z"/><path class="cls-2" d="M75.36,13.09c0-4.65,2.49-7.31,7-7.31s7,2.66,7,7.31V28.2c0,4.65-2.48,7.31-7,7.31s-7-2.66-7-7.31ZM80,28.49c0,2.08.93,2.87,2.4,2.87s2.4-.79,2.4-2.87V12.8c0-2.08-.93-2.87-2.4-2.87S80,10.72,80,12.8Z"/><path class="cls-2" d="M102.16,26.75h.08l3.11-20.63h6.44V35.18h-4.38V14.34h-.08l-3.11,20.84H99.84L96.48,14.63h-.09V35.18h-4V6.12h6.43Z"/><path class="cls-2" d="M130.12,35.18h-4.66l-.8-5.28H119l-.8,5.28h-4.25l4.71-29.06h6.77ZM119.57,26H124l-2.19-14.7h-.08Z"/><path class="cls-2" d="M138.49,5.78c4.51,0,6.82,2.66,6.82,7.31V14h-4.38V12.8c0-2.08-.84-2.87-2.31-2.87s-2.31.79-2.31,2.87.92,3.69,3.95,6.31c3.87,3.36,5.09,5.77,5.09,9.09,0,4.65-2.35,7.31-6.9,7.31s-6.89-2.66-6.89-7.31V26.42h4.37v2.07c0,2.08.92,2.82,2.4,2.82s2.39-.74,2.39-2.82-.92-3.69-3.95-6.31c-3.87-3.36-5.09-5.77-5.09-9.09C131.68,8.44,134,5.78,138.49,5.78Z"/><path class="cls-2" d="M169.49,35.18h-4.67L164,29.9h-5.67l-.8,5.28H153.3L158,6.12h6.77ZM158.94,26h4.45l-2.18-14.7h-.09Z"/><path class="cls-2" d="M175.84,14.13h-.08v21H171.6V6.12h5.8l4.67,17.39h.08V6.12h4.12V35.18h-4.75Z"/><path class="cls-2" d="M189.6,6.12h7.31c4.63,0,6.9,2.53,6.9,7.18V28c0,4.65-2.27,7.19-6.9,7.19H189.6Zm4.62,4.15V31h2.61c1.47,0,2.36-.74,2.36-2.82V13.09c0-2.08-.89-2.82-2.36-2.82Z"/><path class="cls-2" d="M216.43,35.18a8.91,8.91,0,0,1-.42-3.57V27c0-2.7-.93-3.7-3-3.7h-1.6V35.18h-4.62V6.12h7c4.79,0,6.85,2.2,6.85,6.68v2.28c0,3-1,4.9-3,5.86V21c2.32.95,3.08,3.11,3.08,6.14v4.49a8.51,8.51,0,0,0,.5,3.53Zm-5.05-24.91v8.92h1.81c1.73,0,2.78-.75,2.78-3.07V13.26c0-2.08-.72-3-2.36-3Z"/><path class="cls-2" d="M228.29,18.36h6.35v4.15h-6.35V31h8v4.16H223.66V6.12h12.62v4.15h-8Z"/><path class="cls-2" d="M245.37,5.78c4.5,0,6.81,2.66,6.81,7.31V14h-4.37V12.8c0-2.08-.85-2.87-2.32-2.87s-2.31.79-2.31,2.87.92,3.69,3.95,6.31c3.87,3.36,5.09,5.77,5.09,9.09,0,4.65-2.35,7.31-6.9,7.31s-6.89-2.66-6.89-7.31V26.42h4.37v2.07c0,2.08.93,2.82,2.4,2.82s2.39-.74,2.39-2.82-.92-3.69-4-6.31c-3.87-3.36-5.09-5.77-5.09-9.09C238.55,8.44,240.87,5.78,245.37,5.78Z"/><path class="cls-2" d="M259.5,18.36h6.35v4.15H259.5V31h8v4.16H254.87V6.12h12.62v4.15h-8Z"/><path class="cls-2" d="M274.55,14.13h-.08v21h-4.16V6.12h5.8l4.67,17.39h.08V6.12H285V35.18h-4.76Z"/><path class="cls-2" d="M47.39,47.31h0l.76-5.15h.92l-1,6.31H46.61l-1-6.31h1Z"/><path class="cls-2" d="M54.39,44.82h1.38v.9H54.39v1.85h1.74v.9H53.39V42.16h2.74v.9H54.39Z"/><path class="cls-2" d="M62.68,48.47a2,2,0,0,1-.09-.77v-1c0-.58-.2-.8-.66-.8h-.35v2.57h-1V42.16H62.1c1,0,1.48.48,1.48,1.45v.5a1.25,1.25,0,0,1-.65,1.27v0c.5.2.66.67.66,1.33v1a1.82,1.82,0,0,0,.11.76Zm-1.1-5.41V45H62c.37,0,.6-.16.6-.67v-.62c0-.45-.16-.65-.51-.65Z"/><path class="cls-2" d="M69.43,42.09c1,0,1.48.57,1.48,1.58v.2H70v-.26c0-.45-.18-.62-.5-.62s-.5.17-.5.62.2.8.86,1.37a2.44,2.44,0,0,1,1.1,2,1.5,1.5,0,1,1-3,0v-.39h.95V47c0,.45.2.61.52.61s.52-.16.52-.61-.2-.8-.86-1.37a2.43,2.43,0,0,1-1.1-2C68,42.66,68.46,42.09,69.43,42.09Z"/><path class="cls-2" d="M75.33,42.16h1v6.31h-1Z"/><path class="cls-2" d="M83.81,46.12V47a1.5,1.5,0,1,1-3,0V43.67a1.5,1.5,0,1,1,3,0v.62h-1v-.68c0-.45-.2-.62-.52-.62s-.52.17-.52.62V47c0,.45.2.61.52.61s.52-.16.52-.61v-.9Z"/><path class="cls-2" d="M89.26,48.47h-1V42.16h1v2.71H90.4V42.16h1v6.31h-1v-2.7H89.26Z"/><path class="cls-2" d="M97,44.82h1.38v.9H97v1.85h1.73v.9H96V42.16h2.74v.9H97Z"/><path class="cls-2" d="M105.28,48.47a1.74,1.74,0,0,1-.1-.77v-1c0-.58-.2-.8-.65-.8h-.35v2.57h-1V42.16h1.51c1,0,1.49.48,1.49,1.45v.5a1.24,1.24,0,0,1-.66,1.27v0c.5.2.67.67.67,1.33v1a1.82,1.82,0,0,0,.11.76Zm-1.1-5.41V45h.39c.38,0,.61-.16.61-.67v-.62c0-.45-.16-.65-.52-.65Z"/><path class="cls-2" d="M111.64,42.16V47c0,.45.2.61.52.61s.52-.16.52-.61V42.16h.95V47a1.5,1.5,0,1,1-3,0V42.16Z"/><path class="cls-2" d="M119.06,43.9h0v4.57h-.9V42.16h1.26l1,3.78h0V42.16h.89v6.31h-1Z"/><path class="cls-2" d="M127.38,45h1.41v2a1.5,1.5,0,1,1-3,0V43.67a1.5,1.5,0,1,1,3,0v.62h-.95v-.68c0-.45-.2-.62-.52-.62s-.52.17-.52.62V47c0,.45.2.61.52.61s.52-.16.52-.61V45.86h-.46Z"/><path class="cls-2" d="M134.62,42.09c1,0,1.48.57,1.48,1.58v.2h-.95v-.26c0-.45-.18-.62-.5-.62s-.51.17-.51.62.21.8.86,1.37a2.46,2.46,0,0,1,1.11,2,1.5,1.5,0,1,1-3,0v-.39h.95V47c0,.45.2.61.52.61s.52-.16.52-.61-.2-.8-.85-1.37a2.44,2.44,0,0,1-1.11-2C133.14,42.66,133.64,42.09,134.62,42.09Z"/><path class="cls-2" d="M140.47,44.87h1.83v.9h-1.83Z"/><path class="cls-2" d="M152.5,45.17v0a1.22,1.22,0,0,1-.69-1.29v-.12a1.36,1.36,0,0,1,1.49-1.56h1.15v.9h-1.13c-.32,0-.51.17-.51.62v.39c0,.5.23.66.6.66h.44v-.7h1v.7h.27v.9h-.27v2.08a1.87,1.87,0,0,0,.11.77h-1a1.79,1.79,0,0,1-.09-.5h0a.92.92,0,0,1-.91.57c-.74,0-1.11-.52-1.11-1.45v-.64A1.27,1.27,0,0,1,152.5,45.17Zm.83,2.5c.3,0,.5-.16.52-.55V45.65h-.38c-.46,0-.66.22-.66.81V47C152.81,47.49,153,47.67,153.33,47.67Z"/><path class="cls-2" d="M165.64,45h1.29v.9h-1.29V48.5h-1V42.18h2.66v.9h-1.65Z"/><path class="cls-2" d="M171.59,42.18h1V48.5h-1Z"/><path class="cls-2" d="M178.06,43.92h0V48.5h-.9V42.18h1.26l1,3.78h0V42.18h.89V48.5h-1Z"/><path class="cls-2" d="M188.11,48.5h-1l-.17-1.15H185.7l-.18,1.15h-.92l1-6.32h1.47Zm-2.29-2h1l-.47-3.19h0Z"/><path class="cls-2" d="M193.31,43.92h0V48.5h-.9V42.18h1.26l1,3.78h0V42.18h.89V48.5h-1Z"/><path class="cls-2" d="M202.9,42.18v.89L201,47.59h1.91v.91H200v-.89l1.91-4.53h-1.82v-.9Z"/><path class="cls-2" d="M209.43,46.66h0l.67-4.48h1.39V48.5h-.94V44h0l-.68,4.53h-.94L208.2,44h0V48.5h-.88V42.18h1.4Z"/><path class="cls-2" d="M219.31,48.5h-1l-.17-1.15H216.9l-.18,1.15h-.92l1-6.32h1.47Zm-2.29-2h1l-.47-3.19h0Z"/><path class="cls-2" d="M224.91,46l-.31.58V48.5h-1V42.18h1v2.74h0l1.3-2.74h1L225.52,45l1.4,3.5h-1Z"/><path class="cls-2" d="M231.2,42.18h1v5.41h1.65v.91H231.2Z"/><path class="cls-2" d="M239.11,44.84h1.38v.91h-1.38v1.84h1.74v.91h-2.74V42.18h2.74v.9h-1.74Z"/><path class="cls-2" d="M247.39,48.5a1.9,1.9,0,0,1-.09-.78v-1c0-.59-.21-.8-.66-.8h-.35V48.5h-1V42.18h1.51c1,0,1.49.48,1.49,1.45v.5a1.24,1.24,0,0,1-.66,1.27v0c.5.21.67.68.67,1.34v1a1.87,1.87,0,0,0,.11.77Zm-1.1-5.42V45h.39c.38,0,.61-.16.61-.66v-.63c0-.45-.16-.65-.51-.65Z"/><path class="cls-2" d="M259.52,45h1.4v2a1.49,1.49,0,1,1-3,0V43.7a1.49,1.49,0,1,1,3,0v.61H260v-.68c0-.45-.2-.62-.52-.62s-.52.17-.52.62V47c0,.45.2.62.52.62s.52-.17.52-.62V45.88h-.46Z"/><path class="cls-2" d="M267.51,46.66h0l.67-4.48h1.4V48.5h-1V44h0L268,48.5H267L266.28,44h0V48.5h-.87V42.18h1.39Z"/><path class="cls-2" d="M277.15,43.63v.23a1.21,1.21,0,0,1-.65,1.26v0a1.26,1.26,0,0,1,.75,1.34V47a1.35,1.35,0,0,1-1.52,1.5h-1.58V42.18h1.51C276.7,42.18,277.15,42.66,277.15,43.63Zm-2-.55v1.67h.39c.38,0,.61-.16.61-.66v-.36c0-.45-.16-.65-.51-.65Zm0,2.57v1.94h.58c.33,0,.52-.15.52-.62v-.55c0-.58-.2-.77-.65-.77Z"/><path class="cls-2" d="M282.68,48.5h-1V42.18h1v2.71h1.14V42.18h1V48.5h-1V45.79h-1.14Z"/></g></g></svg>