<svg xmlns="http://www.w3.org/2000/svg" viewBox="0 0 161.84 72.14"><defs><style>.cls-1{fill:#fff;}</style></defs><g id="Layer_2" data-name="Layer 2"><g id="Layer_1-2" data-name="Layer 1"><path class="cls-1" d="M63.74,37a7.1,7.1,0,0,1-4.36.11,4.4,4.4,0,0,1-1.58-.88,4,4,0,0,1-1.07-1.52,6.5,6.5,0,0,1,0-4.38,4.37,4.37,0,0,1,1-1.52,4.22,4.22,0,0,1,1.52-.91A6,6,0,0,1,65.15,29a4.22,4.22,0,0,0,.8-.78,1.71,1.71,0,0,0,.4-1.1,1.57,1.57,0,0,0-.28-.89,2.53,2.53,0,0,0-.92-.8,6.3,6.3,0,0,0-1.67-.6,11,11,0,0,0-2.43-.24,9.88,9.88,0,0,0-3.23.51,7.46,7.46,0,0,0-2.64,1.54,7.11,7.11,0,0,0-1.73,2.5,8.75,8.75,0,0,0-.62,3.39,8.23,8.23,0,0,0,.63,3.36,7.2,7.2,0,0,0,1.72,2.47,7.31,7.31,0,0,0,2.55,1.5,9.82,9.82,0,0,0,3.13.51,11.76,11.76,0,0,0,2-.15,11.6,11.6,0,0,0,1.52-.37c.4-.14.8-.3,1.19-.48a8.29,8.29,0,0,0,.88-.49L65,36.38A11.72,11.72,0,0,1,63.74,37Z"/><path class="cls-1" d="M29.61,25a2.12,2.12,0,0,0-1.34.37,1.42,1.42,0,0,0-.52,1.2V40h3.39V25.36l-.6-.2A3.59,3.59,0,0,0,29.61,25Z"/><path class="cls-1" d="M138.14,31.34c0-2.46,1.17-3.69,3.49-3.69a6,6,0,0,1,1.69.21,7.29,7.29,0,0,1,1.26.45,1.92,1.92,0,0,0,.46-.6,1.86,1.86,0,0,0,.28-1,1.7,1.7,0,0,0-1.17-1.6,7.74,7.74,0,0,0-3.05-.51,6.72,6.72,0,0,0-4.66,1.49,5.43,5.43,0,0,0-1.69,4.25V40h3.39Z"/><path class="cls-1" d="M22.32,26.05A5.52,5.52,0,0,0,20.27,25a8.89,8.89,0,0,0-2.56-.35,7.37,7.37,0,0,0-3.24.68,5.49,5.49,0,0,0-2.29,2,5.46,5.46,0,0,0-2.33-2,7.63,7.63,0,0,0-3.3-.68A8.39,8.39,0,0,0,4,25a6.08,6.08,0,0,0-2.08,1.08A5,5,0,0,0,.51,27.86L0,40H3.39V31.52a3.92,3.92,0,0,1,1-2.94,3.52,3.52,0,0,1,2.5-.89,3.53,3.53,0,0,1,2.54,1,4.22,4.22,0,0,1,1,3.18V40h3.39V31.87a4.26,4.26,0,0,1,1-3.18,3.55,3.55,0,0,1,2.55-1,3.5,3.5,0,0,1,2.5.88,4,4,0,0,1,.92,2.94V40h3.39V30.34a6,6,0,0,0-.51-2.5A5,5,0,0,0,22.32,26.05Z"/><path class="cls-1" d="M161.22,25.17a3.26,3.26,0,0,0-1-.13,1.93,1.93,0,0,0-1.31.4,1.54,1.54,0,0,0-.48,1.25v6.69a4.64,4.64,0,0,1-1,3.26,3.69,3.69,0,0,1-2.86,1.11,3.59,3.59,0,0,1-2.94-1.1,4.39,4.39,0,0,1-1-2.93V25.38l-.61-.21a3.16,3.16,0,0,0-1-.13,2,2,0,0,0-1.32.4,1.57,1.57,0,0,0-.48,1.25v7.75a7,7,0,0,0,.49,2.72,5.59,5.59,0,0,0,1.35,2,6,6,0,0,0,2.09,1.22,8.21,8.21,0,0,0,2.65.42,7,7,0,0,0,2.78-.55,4.08,4.08,0,0,0,1.86-1.45c0,.81.62,9.52.26,15.91h0v.66a17.23,17.23,0,0,1-.17,2h0l-.05.37c-1.07,6.45-5.55,11.44-11.08,12.12-.42,0-.85.07-1.31.08-7,0-12.53-6.31-12.6-14.37h0l-.06-6.43a3.94,3.94,0,0,0-.33-1.66,3.45,3.45,0,0,0-.91-1.2,4,4,0,0,0-1.37-.71,6.19,6.19,0,0,0-1.71-.24,5,5,0,0,0-2.16.46,3.66,3.66,0,0,0-1.53,1.36,3.71,3.71,0,0,0-1.55-1.36,5.2,5.2,0,0,0-2.2-.46,5.94,5.94,0,0,0-1.73.25,4.23,4.23,0,0,0-1.38.72,3.48,3.48,0,0,0-.92,1.2,3.79,3.79,0,0,0-.33,1.66v6.41h2.26V49.86a2.32,2.32,0,0,1,4-1.9,2.78,2.78,0,0,1,.68,2.12V55.5h2.27V50.07a2.78,2.78,0,0,1,.68-2.12,2.39,2.39,0,0,1,1.7-.66,2.31,2.31,0,0,1,1.66.59,2.59,2.59,0,0,1,.62,2v5.49h0v.16h0c.07,9.36,6.6,16.65,14.93,16.65h.06a12.12,12.12,0,0,0,1.48-.09c4.07-.37,7.12-1.76,9.28-4.23A12.92,12.92,0,0,0,158,66.45c3.19-4.37,3.54-8.7,3.65-13.71L161.84,39V25.31Z"/><path class="cls-1" d="M122.87,21.75V36.69a8.31,8.31,0,0,0,1.34,2.16,5,5,0,0,0,3.92,1.55,7.51,7.51,0,0,0,1.7-.19,8.82,8.82,0,0,0,1.4-.46,6.43,6.43,0,0,0,1.06-.58q.42-.3.66-.51l-1.37-2.57a4.4,4.4,0,0,1-1.07.57,4.18,4.18,0,0,1-1.6.31,4.07,4.07,0,0,1-1-.14,2.13,2.13,0,0,1-.87-.48,2.2,2.2,0,0,1-.57-.9,4.41,4.41,0,0,1-.21-1.44V28.34H132c.09-.23.17-.46.24-.7a3.46,3.46,0,0,0,.14-1.07,1.92,1.92,0,0,0-.4-1.34,1.78,1.78,0,0,0-1.38-.46h-4.32V20l3.67,1.45c2.38,1,3.41-2.94,1.06-3.83L86.09,0,41.18,17.63c-2.35.92-1.32,4.76,1.06,3.83L47,19.6h0v7.3a6,6,0,0,0-2.08-1.59,6.61,6.61,0,0,0-3-.67,7.8,7.8,0,0,0-3,.58,7.26,7.26,0,0,0-2.41,1.64,7.77,7.77,0,0,0-1.61,2.5,8.56,8.56,0,0,0-.58,3.17,8.11,8.11,0,0,0,.61,3.15,7.4,7.4,0,0,0,1.73,2.48,7.86,7.86,0,0,0,2.54,1.64,8.74,8.74,0,0,0,3.24.6,9.32,9.32,0,0,0,3.18-.54,7,7,0,0,0,2.53-1.61,7.46,7.46,0,0,0,1.68-2.67,10.56,10.56,0,0,0,.54-3.78V18.37h-.12L86.08,4.18l37.05,14.6A9,9,0,0,0,122.87,21.75ZM46.6,34.48a4.62,4.62,0,0,1-1,1.52,4.44,4.44,0,0,1-1.44,1,4.77,4.77,0,0,1-1.86.35A4.41,4.41,0,0,1,39,36a4.23,4.23,0,0,1-1-1.52,6,6,0,0,1,0-3.92A4.26,4.26,0,0,1,39,29a4.48,4.48,0,0,1,3.32-1.38,4.59,4.59,0,0,1,1.86.38,4.14,4.14,0,0,1,1.44,1,4.87,4.87,0,0,1,1,1.54,5.36,5.36,0,0,1,.34,1.9,5.64,5.64,0,0,1-.34,2.08Zm39.48-32L41.81,19.89a.31.31,0,0,1-.43-.15v0a.37.37,0,0,1,.2-.5L86.08,1.67h.06L130.6,19.2a.37.37,0,0,1,.24.29.41.41,0,0,1-.13.36.36.36,0,0,1-.2.06h-.13Z"/><path class="cls-1" d="M99.72,25a2.08,2.08,0,0,0-1.32.37,1.44,1.44,0,0,0-.48,1.2v6.54a4.37,4.37,0,0,1-1,3.08,4.53,4.53,0,0,1-5.87,0,4.47,4.47,0,0,1-1-3.08V25.31l-.6-.19a3.27,3.27,0,0,0-1-.14,2.12,2.12,0,0,0-1.34.37,1.45,1.45,0,0,0-.48,1.21v7.37a6.51,6.51,0,0,0,.54,2.72,5.79,5.79,0,0,0,1.49,2A6.22,6.22,0,0,0,91.11,40,10.12,10.12,0,0,0,97,40a6.51,6.51,0,0,0,2.31-1.26,5.47,5.47,0,0,0,1.49-2A6.69,6.69,0,0,0,101.3,34V25.36l-.59-.2A3.36,3.36,0,0,0,99.72,25Z"/><path class="cls-1" d="M119.33,40V31a6.43,6.43,0,0,0-.54-2.66,5.56,5.56,0,0,0-1.5-2,6.61,6.61,0,0,0-2.3-1.25,10,10,0,0,0-5.88,0,6.56,6.56,0,0,0-2.24,1.2,5.83,5.83,0,0,0-1.52,2,6.14,6.14,0,0,0-.55,2.66V40h3.39V31.82a4.37,4.37,0,0,1,1-3.08,4.49,4.49,0,0,1,5.79,0,4.36,4.36,0,0,1,1,3.08V40Z"/><path class="cls-1" d="M81.62,26.87A7.92,7.92,0,0,0,79,25.21a9.1,9.1,0,0,0-6.46,0,8.06,8.06,0,0,0-2.65,1.66,7.55,7.55,0,0,0-1.72,2.5,8.09,8.09,0,0,0,0,6.26,7.47,7.47,0,0,0,1.72,2.48,8,8,0,0,0,2.61,1.67,8.86,8.86,0,0,0,6.45,0,8,8,0,0,0,2.69-1.67,7.54,7.54,0,0,0,1.73-2.49A8,8,0,0,0,84,32.5a7.86,7.86,0,0,0-.63-3.14A7.44,7.44,0,0,0,81.62,26.87Zm-1.56,7.56a5,5,0,0,1-1,1.55,4.24,4.24,0,0,1-1.47,1,5,5,0,0,1-3.76,0,4.24,4.24,0,0,1-1.46-1,4.85,4.85,0,0,1-1-1.55,5.23,5.23,0,0,1-.35-2,5.48,5.48,0,0,1,.35-2,4.63,4.63,0,0,1,1-1.56,4.13,4.13,0,0,1,1.46-1,4.9,4.9,0,0,1,3.76,0,4.26,4.26,0,0,1,1.47,1,4.79,4.79,0,0,1,1,1.56,5.47,5.47,0,0,1,.34,2A5.22,5.22,0,0,1,80.06,34.43Z"/><path class="cls-1" d="M29.49,7.1a5,5,0,1,1-5,5h0a5,5,0,0,1,5-5m72,39.18a3.71,3.71,0,0,0-1.32-.76,5.31,5.31,0,0,0-1.68-.26,4.44,4.44,0,0,0-2.06.43,3.76,3.76,0,0,0-1.2.89V41.09L94.82,41a2.1,2.1,0,0,0-.66-.08,1.4,1.4,0,0,0-.89.25,1,1,0,0,0-.31.79V55.5h2.26V50.16a3,3,0,0,1,.69-2.07,2.54,2.54,0,0,1,2-.79,2.27,2.27,0,0,1,1.87.68,3,3,0,0,1,.55,2v5.53h2.27V49.28a4.79,4.79,0,0,0-.3-1.76,3.26,3.26,0,0,0-.86-1.27ZM115,48.45a5.39,5.39,0,0,1,0,4.17,5.23,5.23,0,0,1-1.16,1.67,5.42,5.42,0,0,1-1.73,1.1,5.84,5.84,0,0,1-4.31,0,5.46,5.46,0,0,1-1.72-1.13A5.2,5.2,0,0,1,105,52.59a4.93,4.93,0,0,1-.42-2.08,5,5,0,0,1,.42-2.09,5.09,5.09,0,0,1,1.15-1.67,5.17,5.17,0,0,1,1.74-1.09,6,6,0,0,1,4.31,0,5.39,5.39,0,0,1,1.73,1.09A5.17,5.17,0,0,1,115,48.42Zm-2,2.09a3.64,3.64,0,0,0-.23-1.3,3.26,3.26,0,0,0-.63-1,3,3,0,0,0-1-.68,3.31,3.31,0,0,0-2.51,0,2.93,2.93,0,0,0-1,.68,3.18,3.18,0,0,0-.65,1,3.63,3.63,0,0,0-.22,1.3,3.54,3.54,0,0,0,.22,1.25,3.24,3.24,0,0,0,.64,1,2.82,2.82,0,0,0,1,.69,3.31,3.31,0,0,0,2.51,0,2.91,2.91,0,0,0,1-.69,3.4,3.4,0,0,0,.63-1,3.57,3.57,0,0,0,.25-1.25Zm22.7,2.3a5.65,5.65,0,0,1-.42-2.22,5.58,5.58,0,0,1,.41-2.17,5,5,0,0,1,1.13-1.69,5.07,5.07,0,0,1,1.7-1.08,5.91,5.91,0,0,1,2.16-.4,5.62,5.62,0,0,1,1.82.27,4.21,4.21,0,0,1,1.34.71,3.05,3.05,0,0,1,.84,3.58,2.21,2.21,0,0,1-.91,1,5.23,5.23,0,0,1-1.76.63,14,14,0,0,1-2.82.23h-1.49a2.54,2.54,0,0,0,1,1.64,3.91,3.91,0,0,0,2.35.62,4.58,4.58,0,0,0,1-.08,4.94,4.94,0,0,0,.78-.19,5.36,5.36,0,0,0,.6-.24l.36-.17.84,1.58-.5.28a5.05,5.05,0,0,1-.84.33,9.63,9.63,0,0,1-1.18.28,7.91,7.91,0,0,1-1.46.11,6.12,6.12,0,0,1-2.08-.33,4.82,4.82,0,0,1-1.68-1,4.75,4.75,0,0,1-1.14-1.72Zm1.91-2.76h1.74a8.64,8.64,0,0,0,1.76-.13,3.84,3.84,0,0,0,1-.36,1.1,1.1,0,0,0,.5-.5,1.26,1.26,0,0,0,.11-.57,1.23,1.23,0,0,0-.6-1.13,2.83,2.83,0,0,0-1.5-.37,3,3,0,0,0-1.29.25,2.73,2.73,0,0,0-1,.69,3,3,0,0,0-.59,1,3.5,3.5,0,0,0-.19,1.11Zm15,3.64A4.6,4.6,0,0,1,151,54a7.29,7.29,0,0,1-1.47-.12,8.35,8.35,0,0,1-1.2-.28,9.25,9.25,0,0,1-.88-.32A3,3,0,0,1,147,53l-.85,1.53a2.9,2.9,0,0,0,.52.29,7.67,7.67,0,0,0,1,.42,13.41,13.41,0,0,0,1.52.36,10.72,10.72,0,0,0,2,.15,5.53,5.53,0,0,0,3.4-.89,2.83,2.83,0,0,0,1.19-2.38,2.36,2.36,0,0,0-.92-2,5.34,5.34,0,0,0-2.55-.91l-2.08-.24a3.22,3.22,0,0,1-1.25-.36.87.87,0,0,1-.44-.79c0-.81.76-1.21,2.3-1.21a7.31,7.31,0,0,1,1.47.13,7,7,0,0,1,1.09.29,4.69,4.69,0,0,1,.72.33,2.13,2.13,0,0,1,.34.25.78.78,0,0,0,.18-.11,1.2,1.2,0,0,0,.22-.23,1.27,1.27,0,0,0,.2-.31,1,1,0,0,0,.09-.42c0-.49-.38-.89-1.14-1.19a8.91,8.91,0,0,0-3.2-.47,7.84,7.84,0,0,0-2.1.25,3.9,3.9,0,0,0-1.4.69,2.72,2.72,0,0,0-.78,1,3,3,0,0,0-.25,1.21,2.73,2.73,0,0,0,.27,1.26,2.53,2.53,0,0,0,.74.88,3.64,3.64,0,0,0,1.15.57,7.13,7.13,0,0,0,1.46.29l1.55.17a3.6,3.6,0,0,1,1.48.41,1,1,0,0,1-.18,1.79Z"/></g></g></svg>