<svg xmlns="http://www.w3.org/2000/svg" viewBox="0 0 72.9 87"><defs><style>.cls-1{fill:#fff;}.cls-2{fill:#eaeaea;}</style></defs><g id="Layer_2" data-name="Layer 2"><g id="Layer_1-2" data-name="Layer 1"><path class="cls-1" d="M46.92,25.68a19.38,19.38,0,0,0,4.1-.1,43.43,43.43,0,0,0,5.41-1.17,21.71,21.71,0,0,0,10.28-6.15,32,32,0,0,0,6-9.74,2.44,2.44,0,0,0,.16-1.14,3.5,3.5,0,0,0-1.1-2.18,10.78,10.78,0,0,0-3.15-2.1A33,33,0,0,0,61.38.72,25.72,25.72,0,0,0,57,0,14.53,14.53,0,0,0,49.11,2a23.41,23.41,0,0,0-6.83,6,44.69,44.69,0,0,0-6.09,10.46c0,.07,0,.17-.14.21a20.9,20.9,0,0,1,2.62-9H33c-1.06,0-1,0-1.5,1a12.73,12.73,0,0,0-.73,2.13l-.07-.08A19,19,0,0,0,25.42,7a22.51,22.51,0,0,0-6.24-3.44A30.44,30.44,0,0,0,9.84,2.15a50.22,50.22,0,0,0-5.75.3c-1.11.12-2.21.28-3.3.49C.67,3,.57,3,.53,3.16a22.61,22.61,0,0,0-.28,8.16,18.7,18.7,0,0,0,3.64,8.55,13.68,13.68,0,0,0,3.35,3.31,24.81,24.81,0,0,0,15.59,4.15A25.25,25.25,0,0,0,29,26.1a28.19,28.19,0,0,0,2.91-1.19,46.73,46.73,0,0,0,2.84,6.47l-.28-.08a33.84,33.84,0,0,0-11.9-1.72,15.54,15.54,0,0,0-4.43.76,19.47,19.47,0,0,0-7.67,5.05A25.37,25.37,0,0,0,4.24,46.1a23,23,0,0,0-.88,7.73A44.84,44.84,0,0,0,4.05,59a41.46,41.46,0,0,0,2.2,8.19A23.35,23.35,0,0,0,13,76.73a26.87,26.87,0,0,0,7.67,4.44A32.62,32.62,0,0,0,30,83.52a11.72,11.72,0,0,1,7,2.93,2.68,2.68,0,0,0,.49.28,5.23,5.23,0,0,0,3.36,0,6.48,6.48,0,0,0,2.31-1.63,7,7,0,0,1,2.21-1.64,13.48,13.48,0,0,1,1.64-.5,42.49,42.49,0,0,0,9-3.46,31.7,31.7,0,0,0,7.86-6A32.35,32.35,0,0,0,69.8,65a20.77,20.77,0,0,0,1.52-3.69,30.67,30.67,0,0,0,1-11.16,22.85,22.85,0,0,0-2.49-8.28A23.39,23.39,0,0,0,58,31.15a24.83,24.83,0,0,0-13.06-1.78,12.71,12.71,0,0,0-4.75,1.51c-.23.13-.33.11-.48-.11a20.4,20.4,0,0,1-3.26-7.49,10.76,10.76,0,0,1-.25-1.54c.47.31.9.61,1.35.87A21.46,21.46,0,0,0,46.92,25.68ZM31.29,24.13a23.86,23.86,0,0,1-7.8,2.2A23.35,23.35,0,0,1,10.65,24,15.64,15.64,0,0,1,7,21.84,17.33,17.33,0,0,1,1.85,14,18.37,18.37,0,0,1,1,6.77,2.62,2.62,0,0,1,1.06,6a16.15,16.15,0,0,1,.28-2.09c0-.13.08-.17.21-.19a47.17,47.17,0,0,1,8.88-.65,32.68,32.68,0,0,1,6.68.79,20.12,20.12,0,0,1,7.1,3.33,20.18,20.18,0,0,1,4.91,4.67A17.11,17.11,0,0,1,30.41,14a.41.41,0,0,1,.07.22l-.12,1c0,.61,0,1.21,0,1.82A24.08,24.08,0,0,0,31,21.71c.08.36.08.36-.3.31a44,44,0,0,1-6.51-1.36,34,34,0,0,1-10.69-5.11A23.15,23.15,0,0,1,11,13.5a.85.85,0,0,0-.35-.26c0,.17.14.25.22.35A29.56,29.56,0,0,0,19,19.66a42,42,0,0,0,12.27,4.17c.1,0,.28,0,.3.13S31.38,24.09,31.29,24.13Zm10.24,8.11a12,12,0,0,1,4.35-1.14,23.54,23.54,0,0,1,10.26,1.3,21.7,21.7,0,0,1,11.7,9.77,20.28,20.28,0,0,1,2.53,7.64,25.93,25.93,0,0,1,0,6.76,22.46,22.46,0,0,1-2.27,7.76,30.79,30.79,0,0,1-7.7,10,31.32,31.32,0,0,1-10,5.58c-1.45.51-2.92,1-4.41,1.33A8.39,8.39,0,0,0,42,83.69c-.26.27-.55.52-.83.77a3.08,3.08,0,0,1-2.92.52.59.59,0,0,1-.2-.12,14.38,14.38,0,0,0-7.18-3.14l-.08,0h0a18.52,18.52,0,0,1-5.22-.91,32,32,0,0,1-9.11-4A22,22,0,0,1,7.86,66.16a40,40,0,0,1-2.09-8c-.24-1.51-.49-3-.58-4.54,0-.21,0-.42,0-.62a21.1,21.1,0,0,1,1.14-7.31A23.56,23.56,0,0,1,12,36.46a17.32,17.32,0,0,1,6.8-4.39,13.47,13.47,0,0,1,3.88-.64,32.57,32.57,0,0,1,14.59,3,16.61,16.61,0,0,1,8.11,7.88,25.05,25.05,0,0,1,2.45,8,33.54,33.54,0,0,1,.33,5.3,36.52,36.52,0,0,1-.28,3.91c0,.06,0,.15-.11.11l0,.06.08-.1v0l0,0v-.05c0-.3.12-.61.16-.91a34.54,34.54,0,0,0,.41-7,26.89,26.89,0,0,0-2.23-9.91,19.34,19.34,0,0,0-3.58-5.36l-.08-.09a18.32,18.32,0,0,0-3.12-2.54A7.36,7.36,0,0,1,41.53,32.24Zm-5.2-6.49a20.48,20.48,0,0,0,2.79,5.52c.11.15.09.21,0,.32a7.06,7.06,0,0,0-1,.92.22.22,0,0,1-.28.06c-.58-.25-1.16-.49-1.75-.72a.62.62,0,0,1-.28-.25,38.42,38.42,0,0,1-4.13-10.74,19,19,0,0,1-.09-7.94,9.78,9.78,0,0,1,.82-2.35.38.38,0,0,1,.39-.24c.74,0,1.49,0,2.23,0H37.1c.34,0,.34,0,.2.29a21,21,0,0,0-1.81,5.89A19.68,19.68,0,0,0,36.33,25.75Zm.94-4.43c-.17-.08-.14-.16,0-.28.83-.77,1.64-1.57,2.51-2.32a46.74,46.74,0,0,1,7.59-5.45A30.36,30.36,0,0,1,56,9.86a22.7,22.7,0,0,1,3.68-.45,2.58,2.58,0,0,0,.29,0,19.59,19.59,0,0,0-4.12.18,33.53,33.53,0,0,0-11.42,4.2,48.52,48.52,0,0,0-7.05,4.86l-.28.22a1.46,1.46,0,0,1,.27-.56h0a.2.2,0,0,1,.06-.18h0l.06-.12h0a.14.14,0,0,1,.06-.12h0a29.73,29.73,0,0,1,1.51-3,40.06,40.06,0,0,1,5.75-8,21.26,21.26,0,0,1,6.09-4.65,12.62,12.62,0,0,1,7.86-1.11,40.12,40.12,0,0,1,8,2.14,14.14,14.14,0,0,1,4,2.2,3.56,3.56,0,0,1,1.11,1.41,1.66,1.66,0,0,1,.05,1.24,8.28,8.28,0,0,1-.46,1.06,32.86,32.86,0,0,1-2.49,4.69,22.52,22.52,0,0,1-6.65,6.92,22.32,22.32,0,0,1-7,2.95,38.12,38.12,0,0,1-4.57.92,18.77,18.77,0,0,1-6.12-.29,21.08,21.08,0,0,1-7.1-2.94A1.13,1.13,0,0,0,37.27,21.32Z"/><path class="cls-1" d="M47.75,59.58c.11.09.07.19,0,.29s0,.22,0,.32a.25.25,0,0,0,0,.07h0l0-.08c.21-.16.25-.42.35-.64a27.1,27.1,0,0,0,2-5.69,24.56,24.56,0,0,0,.66-4.67,27.83,27.83,0,0,0-.15-4.74c-.15-1.13-.32-2.26-.58-3.37A33.79,33.79,0,0,0,48.45,36a18.2,18.2,0,0,1,2.1.16,25.41,25.41,0,0,1,6.6,1.57,19.26,19.26,0,0,1,8.33,6,23,23,0,0,1,4.41,10c.19.93.3,1.87.46,2.81a22.46,22.46,0,0,1-2.27,7.76,30.79,30.79,0,0,1-7.7,10,31.32,31.32,0,0,1-10,5.58c-1.45.51-2.92,1-4.41,1.33A8.39,8.39,0,0,0,42,83.69c-.26.27-.55.52-.83.77a3.08,3.08,0,0,1-2.92.52.59.59,0,0,1-.2-.12,14.34,14.34,0,0,0-7.18-3.14l-.08,0h0c0-.08-.15-.09-.23-.13C29,81,27.43,80.26,26,79.5a40.25,40.25,0,0,1-4.63-2.78,33.64,33.64,0,0,1-4.21-3.42,21.86,21.86,0,0,1-1.57-1.62c-.47-.57-1-1.11-1.43-1.7a31.78,31.78,0,0,1-2.35-3.6,28.59,28.59,0,0,1-3.28-10c-.12-1-.24-1.94-.27-2.92a35.8,35.8,0,0,1,.28-6.12c.18-1.25.4-2.49.69-3.72.13-.58.35-1.13.44-1.72.17-.23.32-.47.49-.7a13.78,13.78,0,0,1,5.49-4.66,20,20,0,0,1,6-1.58,22.48,22.48,0,0,1,4.92.05c1.18.15,2.34.42,3.5.66a21.85,21.85,0,0,1,11.05,5.89,21.41,21.41,0,0,1,5.38,9,28.38,28.38,0,0,1,1.17,5.91A25.29,25.29,0,0,1,47.75,59.58Z"/><path class="cls-1" d="M68.84,7.2a29.52,29.52,0,0,0-6.49-2.43,36.59,36.59,0,0,0-5.27-1,14,14,0,0,0-7.6,1.34,20.71,20.71,0,0,0-6.16,4.59,37.58,37.58,0,0,0-5.64,8c0,.08,0,.21-.18.23s0,.12-.06.12,0,.11-.06.12,0,.13-.06.18h0a1.46,1.46,0,0,0-.27.56l.28-.22a48.52,48.52,0,0,1,7.05-4.86A33.53,33.53,0,0,1,55.8,9.56a19.59,19.59,0,0,1,4.12-.18,2.58,2.58,0,0,1-.29,0A22.7,22.7,0,0,0,56,9.86a30.36,30.36,0,0,0-8.59,3.41,46.74,46.74,0,0,0-7.59,5.45c-.87.75-1.68,1.55-2.51,2.32-.13.12-.16.2,0,.28a1.13,1.13,0,0,1,.18.12,21.08,21.08,0,0,0,7.1,2.94,18.77,18.77,0,0,0,6.12.29,38.12,38.12,0,0,0,4.57-.92,22.32,22.32,0,0,0,7-2.95,22.52,22.52,0,0,0,6.65-6.92,32.86,32.86,0,0,0,2.49-4.69A8.58,8.58,0,0,0,68.84,7.2ZM53.43,23.11a.22.22,0,0,1-.26-.14l-.34-.65a.23.23,0,0,0-.28-.15c-.64.13-1.28.23-1.93.34a.22.22,0,0,0-.22.22c0,.23-.08.47-.1.7a.26.26,0,0,1-.26.27,7.22,7.22,0,0,0-.79.13c-.2,0-.25,0-.21-.2.28-1.62.54-3.24.82-4.86,0-.29.11-.59.14-.88s.08-.23.23-.25l1.05-.18c.12,0,.21,0,.27.11l3,5.34Zm4.68-3.73c-.09.22-.49.2-.76.29a9.37,9.37,0,0,1-1,.31c-.31.06-.33.2-.24.46.18.54.33,1.08.5,1.62.05.17,0,.24-.15.27s-.65.34-.89.2-.22-.55-.31-.84c-.45-1.49-.9-3-1.36-4.48-.07-.24,0-.3.2-.37,1-.27,1.9-.56,2.84-.85l.22-.06s.07,0,.09.07l0,.09c.08.29.29.63.2.87s-.51.2-.79.29-.77.25-1.17.35c-.2,0-.22.15-.16.32s.19.56.26.85.13.21.3.16c.58-.18,1.16-.34,1.74-.53.19-.06.26,0,.3.17S58.2,19.17,58.11,19.38ZM37.5,17.86Zm-.06.12Zm-.06.12Z"/><path class="cls-1" d="M10,12.52h0l0,0Zm-.07-.08-.06-.06h0l.06.06.07.06h0Zm21.3,11.39A42,42,0,0,1,19,19.66a29.56,29.56,0,0,1-8.1-6.07c-.08-.1-.21-.18-.22-.35a.85.85,0,0,1,.35.26,23.15,23.15,0,0,0,2.47,2.05,34,34,0,0,0,10.69,5.11A44,44,0,0,0,30.67,22c.38.05.38.05.3-.31a24.08,24.08,0,0,1-.61-4.62c0-.61,0-1.21,0-1.82A23.09,23.09,0,0,0,20.19,7.06a20.74,20.74,0,0,0-5.87-1.47A38.86,38.86,0,0,0,8,5.32,46.22,46.22,0,0,0,1.18,6L1.06,6A2.62,2.62,0,0,0,1,6.77,18.37,18.37,0,0,0,1.85,14,17.33,17.33,0,0,0,7,21.84,15.64,15.64,0,0,0,10.65,24a23.35,23.35,0,0,0,12.84,2.31,23.86,23.86,0,0,0,7.8-2.2c.09,0,.26-.06.25-.17S31.34,23.85,31.24,23.83ZM10.11,12.68h.05l0,0h0l0,0,0,0,.05.05,0,0,0,.07,0,0,.05.06.07.06s.07,0,0,.08-.06,0-.08,0l-.05-.06L10.38,13h0l0,0-.05-.05a.7.7,0,0,1-.17-.24h0l0,0S10.11,12.66,10.11,12.68ZM2.34,11.9a1.78,1.78,0,0,1,.07-2.38c.11-.09.19-.13.28,0a3,3,0,0,0,.22.28c.18.16.21.28,0,.5a.77.77,0,0,0,0,.87c.14.28.4.29.67.25.93-.15,1.86-.28,2.79-.44.18,0,.22,0,.25.17.14.68.14.68-.54.79l-2.46.39-.23,0A1.39,1.39,0,0,1,2.34,11.9Zm3.31,5.54A2.36,2.36,0,1,1,8,15.1,2.35,2.35,0,0,1,5.65,17.44Zm3.24,4.18a2.32,2.32,0,0,1-2.36-2.31,2.36,2.36,0,1,1,2.36,2.31Zm6.59-.19a.39.39,0,0,0-.15,0c-.31.1-.47,0-.59-.32a1.46,1.46,0,0,0-1.6-.76A1.59,1.59,0,0,0,12,21.79,1.31,1.31,0,0,0,12.63,23a1.36,1.36,0,0,0,1.46.1c.12-.07.19-.08.26,0a2.15,2.15,0,0,0,.18.24c.29.39.29.39-.18.59a2.39,2.39,0,0,1-2.58-.53,2.31,2.31,0,0,1-.46-2.56,2.28,2.28,0,0,1,2.13-1.44A2.36,2.36,0,0,1,15.7,21.1C15.76,21.31,15.75,21.45,15.48,21.43Zm3.77.29c-.45.54-.89,1.09-1.36,1.61a1.48,1.48,0,0,0-.27.74q-.11.49-.18,1c0,.16-.09.21-.23.18h-.06c-.65-.12-.64-.12-.51-.76.06-.33.11-.65.18-1a.68.68,0,0,0-.07-.4c-.27-.8-.54-1.61-.82-2.41-.09-.25,0-.27.21-.26a.85.85,0,0,1,.91.81,13.33,13.33,0,0,0,.4,1.34c.39-.5.77-1,1.12-1.44A.36.36,0,0,1,19,21c.22.07.59,0,.66.19S19.4,21.54,19.25,21.72Z"/><path class="cls-2" d="M5.18,53c.27-1.06.51-2.14.83-3.2a28.44,28.44,0,0,1,3.46-7.66l.16-.21c-.09.59-.31,1.14-.44,1.72-.29,1.23-.51,2.47-.69,3.72a35.8,35.8,0,0,0-.28,6.12c0,1,.15,2,.27,2.92a28.59,28.59,0,0,0,3.28,10A31.78,31.78,0,0,0,14.12,70c.45.59,1,1.13,1.43,1.7a21.86,21.86,0,0,0,1.57,1.62,33.64,33.64,0,0,0,4.21,3.42A40.25,40.25,0,0,0,26,79.5c1.47.76,3,1.45,4.53,2.06.08,0,.18,0,.23.13a17.82,17.82,0,0,1-5.22-.9,32.24,32.24,0,0,1-9.11-4A22,22,0,0,1,7.86,66.16a40,40,0,0,1-2.09-8c-.24-1.51-.49-3-.58-4.54C5.18,53.37,5.19,53.16,5.18,53Z"/><path class="cls-1" d="M34.93,10.34H37.1c.34,0,.34,0,.2.29a21,21,0,0,0-1.81,5.89,19.68,19.68,0,0,0,.84,9.23,20.34,20.34,0,0,0,2.79,5.52c.11.15.09.21,0,.32a6.53,6.53,0,0,0-1,.92.22.22,0,0,1-.28.06c-.58-.25-1.17-.49-1.75-.72a.57.57,0,0,1-.28-.25,38.37,38.37,0,0,1-4.13-10.75,18.93,18.93,0,0,1-.09-7.93,9.78,9.78,0,0,1,.82-2.35.38.38,0,0,1,.39-.24Z"/><path class="cls-2" d="M42.6,36.21A16.41,16.41,0,0,1,44.81,36a28.84,28.84,0,0,1,2.94,0c.23,0,.47,0,.7,0a33.79,33.79,0,0,1,1.64,5.11c.26,1.11.43,2.24.58,3.37a27.83,27.83,0,0,1,.15,4.74,24.56,24.56,0,0,1-.66,4.67,27.1,27.1,0,0,1-2,5.69c-.1.22-.14.48-.35.64h0c0-.1,0-.21,0-.32s.11-.28.13-.43.12-.61.16-.91a34.54,34.54,0,0,0,.41-7,26.79,26.79,0,0,0-2.23-9.9,19.24,19.24,0,0,0-3.58-5.37Z"/><path class="cls-1" d="M30.75,81.7l.08,0Z"/><path class="cls-1" d="M47.8,60.19l0,.08h0a.25.25,0,0,1,0-.07Z"/><path class="cls-1" d="M10.11,12.69c.16,0,.23.16.32.28l0,0a1.06,1.06,0,0,1-.26-.34Z"/><path class="cls-1" d="M9.88,12.38h0v0Z"/><path class="cls-1" d="M9.94,12.44l-.06-.06h0l.06,0Z"/><path class="cls-1" d="M9.93,12.44l.07.06h0l-.06-.06Z"/><path class="cls-1" d="M10,12.5l0,0,0,0v0Z"/><path class="cls-1" d="M10.12,12.68l0,0c.06,0,0,0,0,0Z"/><path class="cls-1" d="M10.54,13.09s.08,0,0,.08-.06,0-.08,0Z"/><path class="cls-1" d="M10.49,13.13l-.05-.06,0,0,.06.06Z"/><path class="cls-1" d="M10.43,13l.05.06,0,0L10.38,13Z"/><path class="cls-1" d="M52.18,21.11l-1.42.26c-.17,0-.13-.08-.11-.18.11-.73.22-1.46.34-2.28Z"/><path class="cls-1" d="M10.35,19.28a1.53,1.53,0,0,1-1.51,1.46,1.46,1.46,0,0,1-1.43-1.45A1.56,1.56,0,0,1,8.9,17.8,1.52,1.52,0,0,1,10.35,19.28Z"/><path class="cls-1" d="M7.15,15.06a1.52,1.52,0,0,1-1.51,1.49,1.46,1.46,0,0,1,.06-2.92A1.45,1.45,0,0,1,7.15,15.06Z"/></g></g></svg>