<svg xmlns="http://www.w3.org/2000/svg" viewBox="0 0 288.96 35.6"><defs><style>.cls-1{fill:#fff;}</style></defs><g id="Layer_2" data-name="Layer 2"><g id="Layer_1-2" data-name="Layer 1"><path class="cls-1" d="M87.36,35.44H80.2V.17h8.85l10.2,21.49c3.47-7.36,6.81-14.42,10.16-21.52h8.83V35.37h-7V12.5l-.42-.12q-4.5,9.72-9,19.47H96.59l-9-19.37-.28,0Z"/><path class="cls-1" d="M0,.11H7.85V14.72H23.72V.16h7.93V35.42H23.82V21.67H7.9V35.4H0Z"/><path class="cls-1" d="M126.17,35.41V.17h26.69V6.73H134.19v7.56H151V21H134.18v7.79h19.2v6.6Z"/><path class="cls-1" d="M169,35.23C165.11,23.51,161.26,11.85,157.36,0h4.29q4.68,15,9.37,30l.41,0L180.85.13h4.08l9.38,30.05.34,0c3.14-10,6.28-20,9.45-30.06h4.14L196.42,35.31h-4.18Q187.61,20.67,183,6.06l-.34,0c-3.15,9.68-6.3,19.37-9.47,29.14Z"/><path class="cls-1" d="M39.2,24.39l-4.29,2.06V19.32l10.18-5L55.47,9.29,76,19.3v7.08L72.3,24.71c-3.42,6.94-8.81,10.94-16.62,10.89S42.53,31.46,39.2,24.39Zm5.41-2.65a11.68,11.68,0,0,0,11.46,8.14A11.5,11.5,0,0,0,66.85,22L55.46,16.45Z"/><path class="cls-1" d="M255.71,35.51h-4.54c-2.38-3.7-4.78-7.43-7.18-11.14H232.23v11h-3.95V.39c.21-.13.3-.22.38-.22,5.47.06,11-.29,16.41.31,9,1,13.26,10,8.89,18a11.42,11.42,0,0,1-6.39,5.09ZM232.3,20.43c2.15,0,4.19.05,6.22,0a41.62,41.62,0,0,0,6.72-.39c4.29-.81,6.39-3.68,6.34-8.09,0-4.09-2.23-6.71-6.41-7.57A18.75,18.75,0,0,0,241.82,4C239.21,4,236.6,4,234,4c-.54,0-1.08.06-1.69.1Z"/><path class="cls-1" d="M268.68,19.58V31.82H289v3.69H264.65V.29h23.73V4H268.75V15.71h17.49v3.87Z"/><path class="cls-1" d="M72.49,12.44l-17-8.29-16,7.78C40.29,6.52,47.56,1.07,54.56.48A17.7,17.7,0,0,1,72.49,12.44Z"/><path class="cls-1" d="M213.59.14h3.81V35.36h-3.81Z"/></g></g></svg>