<svg xmlns="http://www.w3.org/2000/svg" viewBox="0 0 14.32 14.32"><defs><style>.cls-1{fill:#fff;}</style></defs><g id="Layer_2" data-name="Layer 2"><g id="Layer_1-2" data-name="Layer 1"><path class="cls-1" d="M7.16,1.29c1.91,0,2.14,0,2.89,0a3.82,3.82,0,0,1,1.33.25,2.15,2.15,0,0,1,.82.53,2.1,2.1,0,0,1,.54.83A4.08,4.08,0,0,1,13,4.27c0,.75,0,1,0,2.89s0,2.14,0,2.89a4.08,4.08,0,0,1-.25,1.33,2.06,2.06,0,0,1-.54.82,2.06,2.06,0,0,1-.82.54,3.82,3.82,0,0,1-1.33.25c-.75,0-1,0-2.89,0S5,13,4.27,13a3.82,3.82,0,0,1-1.33-.25,2.1,2.1,0,0,1-.83-.54,2.15,2.15,0,0,1-.53-.82,3.82,3.82,0,0,1-.25-1.33c0-.75,0-1,0-2.89s0-2.14,0-2.89a3.82,3.82,0,0,1,.25-1.33A2.29,2.29,0,0,1,2.94,1.58a3.82,3.82,0,0,1,1.33-.25c.75,0,1,0,2.89,0M7.16,0C5.21,0,5,0,4.21,0A5.34,5.34,0,0,0,2.47.38,3.46,3.46,0,0,0,1.2,1.2,3.46,3.46,0,0,0,.38,2.47,5.34,5.34,0,0,0,0,4.21c0,.76,0,1,0,3s0,2.19,0,2.95a5.34,5.34,0,0,0,.34,1.74,3.46,3.46,0,0,0,.82,1.27,3.46,3.46,0,0,0,1.27.82,5.34,5.34,0,0,0,1.74.34c.76,0,1,0,3,0s2.19,0,2.95,0a5.34,5.34,0,0,0,1.74-.34,3.59,3.59,0,0,0,2.09-2.09,5.34,5.34,0,0,0,.34-1.74c0-.76,0-1,0-2.95s0-2.19,0-2.95a5.34,5.34,0,0,0-.34-1.74,3.46,3.46,0,0,0-.82-1.27A3.46,3.46,0,0,0,11.85.38,5.34,5.34,0,0,0,10.11,0c-.76,0-1,0-2.95,0"/><path class="cls-1" d="M7.16,3.48a3.68,3.68,0,1,0,3.68,3.68A3.68,3.68,0,0,0,7.16,3.48m0,6.07A2.39,2.39,0,1,1,9.55,7.16,2.39,2.39,0,0,1,7.16,9.55"/><path class="cls-1" d="M11.84,3.34A.86.86,0,1,1,11,2.48a.86.86,0,0,1,.86.86"/></g></g></svg>