<svg xmlns="http://www.w3.org/2000/svg" xmlns:xlink="http://www.w3.org/1999/xlink" viewBox="0 0 78.21 78.21"><defs><style>.cls-1{fill:url(#Degradado_sin_nombre_8);}</style><linearGradient id="Degradado_sin_nombre_8" x1="66.76" y1="66.76" x2="11.45" y2="11.45" gradientUnits="userSpaceOnUse"><stop offset="0" stop-color="#00fb73"/><stop offset="1" stop-color="#00b25b"/></linearGradient></defs><g id="Layer_2" data-name="Layer 2"><g id="ELEMENTS"><path class="cls-1" d="M39.1,0A39.11,39.11,0,1,0,78.21,39.1,39.11,39.11,0,0,0,39.1,0Zm.81,60.87a23.16,23.16,0,0,1-11-2.82L16.23,61.44,19.6,48.86a23.21,23.21,0,1,1,20.31,12Zm0-42.06a18.81,18.81,0,0,0-16.08,28.6l.49.8-1.88,7,7.06-1.89.8.47a18.82,18.82,0,1,0,9.61-35ZM51,44.75a5.58,5.58,0,0,1-4.21,3.13,8.81,8.81,0,0,1-4.64-.73,19.69,19.69,0,0,1-4-1.89,22.89,22.89,0,0,1-6.39-5.94,25.39,25.39,0,0,1-1.47-2.24,12.18,12.18,0,0,1-1.41-3.25,6.1,6.1,0,0,1-.18-1.47,5.86,5.86,0,0,1,2-4.64,2.67,2.67,0,0,1,2.89-.43c1,.55,1.48,1.95,1.94,2.92a5,5,0,0,1,.61,2.63,5.12,5.12,0,0,1-1.37,2.21.92.92,0,0,0-.12,1.26,15.09,15.09,0,0,0,7.52,6.44.83.83,0,0,0,1.07-.23c.56-.69,1.11-2,2-2.4,1.12-.46,2.37.18,3.32.75s2.38,1.19,2.62,2.29A2.72,2.72,0,0,1,51,44.75Z"/></g></g></svg>