<svg xmlns="http://www.w3.org/2000/svg" viewBox="0 0 200 30.17"><defs><style>.cls-1{fill:#fff;}</style></defs><g id="Layer_2" data-name="Layer 2"><g id="Layer_1-2" data-name="Layer 1"><path class="cls-1" d="M18.66,17.24,7.47,23.71h0l11.19,6.46h0l11.2-6.46Zm0,8.62h0l-3.73-2.15,3.73-2.16,3.74,2.16Z"/><polygon class="cls-1" points="37.33 19.39 37.33 19.4 33.6 21.55 18.66 12.93 3.73 21.55 0 19.4 18.66 8.62 37.33 19.39"/><path class="cls-1" d="M33.59,8.62l-3.73,2.15L18.66,4.31,7.47,10.77h0L3.73,8.62,18.66,0Z"/><path class="cls-1" d="M62,21.55a6.11,6.11,0,0,1-.47,2.4,6.24,6.24,0,0,1-1.35,2,6.18,6.18,0,0,1-2,1.35,6.39,6.39,0,0,1-2.41.47h-8V2.39h8a6.21,6.21,0,0,1,2.41.48,6.17,6.17,0,0,1,3.37,3.36A6.2,6.2,0,0,1,62,8.64ZM59.75,8.64a4,4,0,0,0-.31-1.58,4.14,4.14,0,0,0-.88-1.31,3.9,3.9,0,0,0-1.31-.87,4,4,0,0,0-1.57-.31H50v21h5.65a4.15,4.15,0,0,0,1.57-.31,4.15,4.15,0,0,0,2.19-2.17,4,4,0,0,0,.31-1.58Z"/><path class="cls-1" d="M77.83,22.45a5.36,5.36,0,0,1-.41,2.05,5.29,5.29,0,0,1-1.15,1.73,5.46,5.46,0,0,1-1.72,1.15,5.35,5.35,0,0,1-2,.4H71.05a5.35,5.35,0,0,1-2-.4,5.46,5.46,0,0,1-1.72-1.15,5.29,5.29,0,0,1-1.15-1.73,5.18,5.18,0,0,1-.41-2.05V14.63a5.18,5.18,0,0,1,.41-2.05,5.29,5.29,0,0,1,1.15-1.73A5.46,5.46,0,0,1,69,9.7a5.35,5.35,0,0,1,2-.4H72.5a5.35,5.35,0,0,1,2,.4,5.46,5.46,0,0,1,1.72,1.15,5.29,5.29,0,0,1,1.15,1.73,5.36,5.36,0,0,1,.41,2.05v4.26H67.9v3.69a3.2,3.2,0,0,0,.24,1.22,3.11,3.11,0,0,0,1.69,1.68,3,3,0,0,0,1.22.25H72.5a3,3,0,0,0,1.22-.25A3.06,3.06,0,0,0,75.4,23.8a3,3,0,0,0,.25-1.22v-.85h2.18ZM75.65,14.5a3,3,0,0,0-.25-1.22,3.06,3.06,0,0,0-1.68-1.68,3,3,0,0,0-1.22-.25H71.05a3,3,0,0,0-1.22.25,3.11,3.11,0,0,0-1.69,1.68,3.2,3.2,0,0,0-.24,1.22v2.69h7.75Z"/><path class="cls-1" d="M87.87,27.78H86.79L80.36,9.3h2.18l4.8,14.32L92.12,9.3H94.3Z"/><path class="cls-1" d="M111.85,21.55a6.12,6.12,0,0,1-.48,2.4A6.24,6.24,0,0,1,110,26a6.13,6.13,0,0,1-2,1.35,6.42,6.42,0,0,1-2.41.47h-8V2.39h8a6.24,6.24,0,0,1,6.25,6.25v.25a6.21,6.21,0,0,1-.91,3.25,6,6,0,0,1-2.4,2.26,5.92,5.92,0,0,1,2.4,2.26,6.27,6.27,0,0,1,.91,3.26ZM109.56,8.64a4,4,0,0,0-.31-1.58,4,4,0,0,0-2.18-2.18,4,4,0,0,0-1.58-.31H99.84v8.75h5.65a4,4,0,0,0,2.89-1.21,3.91,3.91,0,0,0,1.18-2.87Zm0,10.91a4,4,0,0,0-.31-1.58,3.92,3.92,0,0,0-.87-1.29,4.14,4.14,0,0,0-1.31-.88,4.2,4.2,0,0,0-1.58-.31H99.84V25.61h5.65a4.2,4.2,0,0,0,1.58-.31,4.14,4.14,0,0,0,1.31-.88,3.92,3.92,0,0,0,.87-1.29,4,4,0,0,0,.31-1.58Z"/><path class="cls-1" d="M120.81,11.72a3,3,0,0,0-1.22.25,3.11,3.11,0,0,0-1.69,1.68,3.2,3.2,0,0,0-.24,1.22V27.78h-2.18V9.3h1.91v2.19a5.47,5.47,0,0,1,1.9-1.61,5.26,5.26,0,0,1,2.42-.58H123v2.42Z"/><path class="cls-1" d="M126.07,14.47a5.15,5.15,0,0,1,.41-1.94,5.42,5.42,0,0,1,2.87-2.83,5.35,5.35,0,0,1,2.05-.4h1.27a5.35,5.35,0,0,1,2.05.4,5.35,5.35,0,0,1,2.88,2.88,5.35,5.35,0,0,1,.4,2.05V27.78h-1.93V25.62a5.38,5.38,0,0,1-1.89,1.59,5.31,5.31,0,0,1-2.41.57h-.55a5.26,5.26,0,0,1-2-.4,5.4,5.4,0,0,1-1.73-1.15,5.29,5.29,0,0,1-1.15-1.73,5.36,5.36,0,0,1-.41-2.05v-.17a5.36,5.36,0,0,1,.41-2.05,5.29,5.29,0,0,1,1.15-1.73,5.4,5.4,0,0,1,1.73-1.15,5.26,5.26,0,0,1,2-.4h4.61V14.5a3.21,3.21,0,0,0-.25-1.22,3.11,3.11,0,0,0-1.69-1.68,3,3,0,0,0-1.22-.25H131.4a3,3,0,0,0-1.22.25,3.07,3.07,0,0,0-1,.67,3,3,0,0,0-.67,1,3.3,3.3,0,0,0-.25,1.2Zm9.76,4.18h-4.61a3.2,3.2,0,0,0-1.22.24,3.1,3.1,0,0,0-1,.68,3,3,0,0,0-.68,1,3.21,3.21,0,0,0-.24,1.23v.76a3,3,0,0,0,.25,1.22A3.06,3.06,0,0,0,130,25.48a3,3,0,0,0,1.22.25h1.45a3,3,0,0,0,1.22-.25,3.11,3.11,0,0,0,1.69-1.68,3.21,3.21,0,0,0,.25-1.22Z"/><path class="cls-1" d="M152.29,14.5a3.2,3.2,0,0,0-.24-1.22,3.11,3.11,0,0,0-1.69-1.68,3,3,0,0,0-1.22-.25h-1.45a3,3,0,0,0-1.22.25,3.06,3.06,0,0,0-1.68,1.68,3,3,0,0,0-.25,1.22v8a3,3,0,0,0,.25,1.23,3.18,3.18,0,0,0,.67,1,3.24,3.24,0,0,0,1,.67,3.17,3.17,0,0,0,1.22.25h1.45a3.17,3.17,0,0,0,1.22-.25,3.11,3.11,0,0,0,1.93-2.91v-.85h2.18v.73a5.33,5.33,0,0,1-5.33,5.33h-1.45a5.33,5.33,0,0,1-5.33-5.33V14.63a5.18,5.18,0,0,1,.41-2.05,5.29,5.29,0,0,1,1.15-1.73,5.46,5.46,0,0,1,1.72-1.15,5.35,5.35,0,0,1,2.05-.4h1.45a5.35,5.35,0,0,1,2.05.4,5.46,5.46,0,0,1,1.72,1.15,5.29,5.29,0,0,1,1.15,1.73,5.18,5.18,0,0,1,.41,2.05V15h-2.18Z"/><path class="cls-1" d="M159.2,2.39h2.18V15l1.73,2.09,6.1-7.47H172l-7.58,9.07L172,27.78h-2.83l-7.83-9.61v9.61H159.2Z"/><path class="cls-1" d="M187.06,22.45a5.36,5.36,0,0,1-.41,2.05,5.45,5.45,0,0,1-1.15,1.73,5.51,5.51,0,0,1-1.73,1.15,5.3,5.3,0,0,1-2,.4h-1.46a5.26,5.26,0,0,1-2-.4,5.51,5.51,0,0,1-1.73-1.15,5.45,5.45,0,0,1-1.15-1.73,5.36,5.36,0,0,1-.41-2.05V14.63a5.36,5.36,0,0,1,.41-2.05,5.45,5.45,0,0,1,1.15-1.73,5.51,5.51,0,0,1,1.73-1.15,5.26,5.26,0,0,1,2-.4h1.46a5.3,5.3,0,0,1,2,.4,5.51,5.51,0,0,1,1.73,1.15,5.45,5.45,0,0,1,1.15,1.73,5.36,5.36,0,0,1,.41,2.05v4.26h-9.94v3.69a3,3,0,0,0,.25,1.22,3.07,3.07,0,0,0,.67,1,3.18,3.18,0,0,0,1,.67,3,3,0,0,0,1.22.25h1.46a3,3,0,0,0,1.22-.25,3.18,3.18,0,0,0,1-.67,3.24,3.24,0,0,0,.67-1,3.21,3.21,0,0,0,.25-1.22v-.85h2.18Zm-2.18-7.95a3.21,3.21,0,0,0-.25-1.22,3.24,3.24,0,0,0-.67-1,3.18,3.18,0,0,0-1-.67,3,3,0,0,0-1.22-.25h-1.46a3,3,0,0,0-1.22.25,3.18,3.18,0,0,0-1,.67,3.07,3.07,0,0,0-.67,1,3,3,0,0,0-.25,1.22v2.69h7.76Z"/><path class="cls-1" d="M198,27.78a4.65,4.65,0,0,1-1.84-.37,4.72,4.72,0,0,1-1.55-1,4.84,4.84,0,0,1-1-1.55,4.74,4.74,0,0,1-.36-1.83V11.37H190V9.3h3.26v-4h2.18v4H200v2.07h-4.6V23.11a2.55,2.55,0,0,0,.34,1.3,2.6,2.6,0,0,0,2.28,1.3h2v2.07Z"/></g></g></svg>