<svg xmlns="http://www.w3.org/2000/svg" viewBox="0 0 204.09 59.35"><defs><style>.cls-1{fill:#fff;}</style></defs><g id="Layer_2" data-name="Layer 2"><g id="Layer_1-2" data-name="Layer 1"><path class="cls-1" d="M86.47,1.5l.65,1.86H87a8.28,8.28,0,0,0-6-2.55A8,8,0,0,0,75.1,3a6.94,6.94,0,0,0-2.21,5.18,11.91,11.91,0,0,0,1,4.32,9.24,9.24,0,0,0,3.12,4A8.43,8.43,0,0,0,82.15,18,12.06,12.06,0,0,0,86,17.4a6.33,6.33,0,0,0,2.84-1.71l.16,0-1.23,1.89c-2,.44-3.29.69-3.89.77a18.65,18.65,0,0,1-2.38.12q-5.55,0-7.93-2.57A8.71,8.71,0,0,1,71.22,9.8a9.52,9.52,0,0,1,1.23-4.65A8.92,8.92,0,0,1,76,1.63a11.78,11.78,0,0,1,7.85-1,14.71,14.71,0,0,1,1.8.55l.79.3Z"/><path class="cls-1" d="M91.49,18.24v-.18a1.33,1.33,0,0,0,1.07-.32,1.75,1.75,0,0,0,.25-1.06V2.26a2.36,2.36,0,0,0-.2-1.11C92.49.93,92.1.81,91.47.79V.61h4.72V.79a1.84,1.84,0,0,0-.92.17.86.86,0,0,0-.35.39,4.17,4.17,0,0,0-.08,1V14.75A2.84,2.84,0,0,0,95.6,17a4.12,4.12,0,0,0,2.62.65h2.15a3,3,0,0,0,2.28-.77,4.57,4.57,0,0,0,.81-2.88h.17v4.24Z"/><path class="cls-1" d="M112,.61V.79a1.82,1.82,0,0,0-.77.11.67.67,0,0,0-.5.42,6.39,6.39,0,0,0-.08,1.3V16.14a5.65,5.65,0,0,0,.09,1.35.79.79,0,0,0,.35.4,1.77,1.77,0,0,0,.91.17v.18h-4.7v-.18c.59,0,1-.12,1.1-.35a3.44,3.44,0,0,0,.22-1.54V2.77a3.63,3.63,0,0,0-.24-1.64c-.16-.26-.52-.37-1.08-.34V.61Z"/><path class="cls-1" d="M131.83.61h2.78V.79a1.32,1.32,0,0,0-1.41,1.47,6.1,6.1,0,0,0,.07.83l1.85,13.35a3.6,3.6,0,0,0,.38,1.28,1.22,1.22,0,0,0,.87.34v.18h-4v-.18a.68.68,0,0,0,.79-.76,5.87,5.87,0,0,0-.07-.71L131.32,3.65,125,18.24h-.12L118.53,3.67l-1.79,13a4.5,4.5,0,0,0,0,.68q0,.69.81.69v.18h-2.69v-.18a1.34,1.34,0,0,0,.78-.15.92.92,0,0,0,.27-.48,4.87,4.87,0,0,0,.14-.74l2-14.24A2.71,2.71,0,0,0,117,1a2.11,2.11,0,0,0-.94-.24V.61h3.32L125.61,15Z"/><path class="cls-1" d="M148.67,10.12H143.5l-2.67,6.66a4.1,4.1,0,0,0-.28.88c0,.26.2.4.59.4v.18h-2.62v-.18a1.46,1.46,0,0,0,.88-.26,3.16,3.16,0,0,0,.79-1.34L146.58.35h.32l6.28,15.56a6.2,6.2,0,0,0,.49,1.13,1.56,1.56,0,0,0,1.47,1v.18H151v-.18q.57,0,.57-.45a2.93,2.93,0,0,0-.28-.95.48.48,0,0,1-.08-.16c0-.08,0-.12,0-.12Zm-5-.49h4.76l-2.38-6Z"/><path class="cls-1" d="M169.89,0l-.84,2.13h-.18a1.82,1.82,0,0,0,0-.51c0-.19-.06-.31-.19-.36a2,2,0,0,0-.63-.08h-4.6V16.26a3.67,3.67,0,0,0,.15,1.28.76.76,0,0,0,.41.43,2.75,2.75,0,0,0,.83.09v.18h-4.77v-.18a1.63,1.63,0,0,0,1.12-.35,2.12,2.12,0,0,0,.23-1.2V1.18h-4.41a3.1,3.1,0,0,0-.87.08c-.14.05-.2.18-.2.39a2.08,2.08,0,0,0,.09.48h-.18L155.07,0h.18a1,1,0,0,0,.42.52,2.8,2.8,0,0,0,.9.09h11.7a3.83,3.83,0,0,0,1-.09.69.69,0,0,0,.45-.52Z"/><path class="cls-1" d="M172.79.81V.61h11.08V3h-.18a4.61,4.61,0,0,0-.61-1.59,1.9,1.9,0,0,0-1.2-.24h-5.82V9.12h5.4a2.17,2.17,0,0,0,1-.15.52.52,0,0,0,.22-.44h.18v1.66h-.18a.59.59,0,0,0-.28-.46,1.89,1.89,0,0,0-.82-.12h-5.54v5.44a5,5,0,0,0,.23,1.78,1.08,1.08,0,0,0,.72.68,6.1,6.1,0,0,0,1.5.14h3.11a10.2,10.2,0,0,0,1.89-.1,1.35,1.35,0,0,0,.7-.41,2.63,2.63,0,0,0,.44-1.32h.18v2.42h-12v-.18a2.08,2.08,0,0,0,.92-.24c.21-.13.32-.47.32-1V2.57a3.88,3.88,0,0,0-.17-1.36C173.75,1,173.39.81,172.79.81Z"/><path class="cls-1" d="M71.22,21.21V21h5a9.31,9.31,0,0,1,3.89.6,4.22,4.22,0,0,1,1.77,1.49,4.43,4.43,0,0,1,.56,2.36,3.88,3.88,0,0,1-1.54,3.36,6.78,6.78,0,0,1-4.19,1.08v-.18a3.7,3.7,0,0,0,2.72-1A3.59,3.59,0,0,0,80.51,26,5.11,5.11,0,0,0,80,23.69a3.59,3.59,0,0,0-1.43-1.53,5.71,5.71,0,0,0-2.81-.53H74.5V36.71c0,.85.1,1.36.29,1.52a1.69,1.69,0,0,0,1.09.25v.18H71.22v-.18c.83,0,1.25-.38,1.25-1.14V22.75a2.14,2.14,0,0,0-.24-1.23A1.24,1.24,0,0,0,71.22,21.21Z"/><path class="cls-1" d="M90.75,21v.18a1.82,1.82,0,0,0-.77.11.68.68,0,0,0-.51.42A6.7,6.7,0,0,0,89.4,23V36.56a5.59,5.59,0,0,0,.09,1.35.83.83,0,0,0,.34.41,2,2,0,0,0,.92.16v.18h-4.7v-.18c.59,0,1-.12,1.1-.34a3.58,3.58,0,0,0,.21-1.55V23.2a3.65,3.65,0,0,0-.24-1.65c-.16-.26-.52-.37-1.07-.34V21Z"/><path class="cls-1" d="M104.22,20.77A8.45,8.45,0,0,1,110.29,23a7.48,7.48,0,0,1,2.35,5.63A10.37,10.37,0,0,1,109.91,36a9.34,9.34,0,0,1-7.23,3,8.07,8.07,0,0,1-8.33-8.13,10.85,10.85,0,0,1,1.12-4.65,9.37,9.37,0,0,1,8.75-5.38ZM104.15,38a7.38,7.38,0,0,0,3.59-1,7.17,7.17,0,0,0,2.78-2.68,6.8,6.8,0,0,0,1-3.52,8.29,8.29,0,0,0-1.37-4.66,9.77,9.77,0,0,0-3.55-3.27,8.58,8.58,0,0,0-4-1.19,6.85,6.85,0,0,0-4.76,2,6.4,6.4,0,0,0-2.13,4.9,9.41,9.41,0,0,0,2.61,6.58A7.82,7.82,0,0,0,104.15,38Z"/><path class="cls-1" d="M130.83,21h3.41v.18a1.61,1.61,0,0,0-1.08.33,1.92,1.92,0,0,0-.3,1.29v16l-14.06-15v13a2.94,2.94,0,0,0,.1.92.68.68,0,0,0,.27.41,3.1,3.1,0,0,0,.9.22v.18h-3.38v-.18c.6,0,1-.11,1.13-.33a3.38,3.38,0,0,0,.22-1.54V24.69a6.43,6.43,0,0,0-.44-2.56c-.29-.66-1-1-2-.92V21h3.32L132.11,35.1V22.66q0-1-.36-1.23a1.72,1.72,0,0,0-.92-.22Z"/><path class="cls-1" d="M138,21.23V21h11.08v2.43h-.18a4.68,4.68,0,0,0-.6-1.59,2,2,0,0,0-1.21-.24h-5.81v7.91h5.4a2.09,2.09,0,0,0,1-.15.53.53,0,0,0,.23-.44h.18v1.67h-.18a.59.59,0,0,0-.28-.47,1.92,1.92,0,0,0-.82-.12h-5.54v5.44a5,5,0,0,0,.23,1.78,1.08,1.08,0,0,0,.72.68,6.1,6.1,0,0,0,1.5.14h3.11a10.27,10.27,0,0,0,1.89-.1,1.39,1.39,0,0,0,.7-.41,2.63,2.63,0,0,0,.44-1.32H150v2.42H138v-.18a2,2,0,0,0,.93-.24c.21-.13.32-.47.32-1V23a3.88,3.88,0,0,0-.17-1.36C139,21.37,138.59,21.23,138,21.23Z"/><path class="cls-1" d="M153.22,21.23V21H164.3v2.43h-.18a4.68,4.68,0,0,0-.6-1.59,1.92,1.92,0,0,0-1.2-.24H156.5v7.91h5.4a2.17,2.17,0,0,0,1-.15.54.54,0,0,0,.22-.44h.18v1.67h-.18a.59.59,0,0,0-.28-.47A1.92,1.92,0,0,0,162,30H156.5v5.44a5,5,0,0,0,.23,1.78,1.08,1.08,0,0,0,.72.68,6.1,6.1,0,0,0,1.5.14h3.11A10.2,10.2,0,0,0,164,38a1.35,1.35,0,0,0,.7-.41,2.63,2.63,0,0,0,.44-1.32h.18v2.42H153.22v-.18a2,2,0,0,0,.93-.24c.21-.13.32-.47.32-1V23a3.88,3.88,0,0,0-.17-1.36C154.19,21.37,153.83,21.23,153.22,21.23Z"/><path class="cls-1" d="M168.47,21.21V21h5c1.27,0,2.18,0,2.75.09a4.63,4.63,0,0,1,1.74.55A3.34,3.34,0,0,1,179.31,23a4,4,0,0,1,.45,2,4.53,4.53,0,0,1-.81,2.56,6.63,6.63,0,0,1-2.28,2.06l1.25,1.91c.27.48,1,1.52,2.16,3.14a10.93,10.93,0,0,0,2.71,3,3.74,3.74,0,0,0,1.85.53,4.09,4.09,0,0,0,2-.68l.07.24A5.72,5.72,0,0,1,183,38.82a4,4,0,0,1-2.63-.9,29,29,0,0,1-3.83-5,.06.06,0,0,1,0-.05l-1.77-2.73-1.58,0h-1.42V37a2.36,2.36,0,0,0,.21,1.16c.14.24.49.36,1,.36v.18h-4.54v-.18q.84,0,1.05-.36a2.76,2.76,0,0,0,.21-1.32v-14a3.08,3.08,0,0,0-.18-1.13C169.43,21.37,169.07,21.22,168.47,21.21Zm3.3.29v8.27h1.84a4.5,4.5,0,0,0,3.24-1A3.64,3.64,0,0,0,177.91,26a5.24,5.24,0,0,0-1-3.08c-.69-1-1.91-1.45-3.65-1.45Z"/><path class="cls-1" d="M198.28,21.26l.84,2.2-.14,0-.67-.7a4.6,4.6,0,0,0-3.45-1.45,3.93,3.93,0,0,0-2.87,1,3.38,3.38,0,0,0-1.06,2.49,2.91,2.91,0,0,0,.5,1.69,4.37,4.37,0,0,0,2.08,1.35c1.81.61,3,1.07,3.71,1.38a5.77,5.77,0,0,1,1.93,1.56,4.2,4.2,0,0,1,.93,2.82,5.59,5.59,0,0,1-.17,1.37,4.43,4.43,0,0,1-.54,1.25,5.24,5.24,0,0,1-.89,1.1,4.45,4.45,0,0,1-1.06.76,5.59,5.59,0,0,1-1.7.38c-.77.09-1.28.14-1.53.14h-4.7V33.54h.18a4.55,4.55,0,0,0,1.19,3.55,5.53,5.53,0,0,0,3.65,1A4.92,4.92,0,0,0,197.93,37a3.33,3.33,0,0,0,1.16-2.56,2.84,2.84,0,0,0-.4-1.55,3.84,3.84,0,0,0-1.14-1.13,14.37,14.37,0,0,0-2.76-1.18A14.44,14.44,0,0,1,192,29.37a4,4,0,0,1-1.37-1.6,4.7,4.7,0,0,1-.55-2.18,4.63,4.63,0,0,1,1.4-3.44,5.05,5.05,0,0,1,3.69-1.38A10.45,10.45,0,0,1,197,21a11.35,11.35,0,0,1,1.15.26A.16.16,0,0,0,198.28,21.26Z"/><path class="cls-1" d="M81.37,51H76.2l-2.67,6.66a4,4,0,0,0-.27.88c0,.27.19.4.58.4v.18H71.22V58.9a1.51,1.51,0,0,0,.89-.26,3.28,3.28,0,0,0,.79-1.33l6.38-16.12h.32l6.28,15.56a7.5,7.5,0,0,0,.49,1.14,1.56,1.56,0,0,0,1.47,1v.18H83.73V58.9c.37,0,.56-.15.56-.45a2.81,2.81,0,0,0-.28-1,.4.4,0,0,1-.08-.16c0-.08,0-.12,0-.12Zm-5-.49h4.77l-2.39-6Z"/><path class="cls-1" d="M105.12,42.34l.66,1.86h-.18a8.29,8.29,0,0,0-6-2.54,8,8,0,0,0-5.81,2.14A6.93,6.93,0,0,0,91.54,49a11.74,11.74,0,0,0,1,4.32,9.09,9.09,0,0,0,3.11,4,8.44,8.44,0,0,0,5.16,1.58,12.34,12.34,0,0,0,3.89-.64,6.38,6.38,0,0,0,2.85-1.72l.15,0-1.23,1.89c-2,.43-3.29.68-3.88.76a18.82,18.82,0,0,1-2.39.12c-3.69,0-6.34-.85-7.93-2.56a8.74,8.74,0,0,1-2.39-6.15A9.52,9.52,0,0,1,91.1,46a8.86,8.86,0,0,1,3.54-3.51,11.7,11.7,0,0,1,7.84-1,14.71,14.71,0,0,1,1.8.55l.79.3Z"/><path class="cls-1" d="M120.11,51h-5.17l-2.67,6.66a4,4,0,0,0-.27.88c0,.27.19.4.58.4v.18H110V58.9a1.51,1.51,0,0,0,.89-.26,3.28,3.28,0,0,0,.79-1.33L118,41.19h.32l6.28,15.56a7.5,7.5,0,0,0,.49,1.14,1.56,1.56,0,0,0,1.47,1v.18h-4.11V58.9c.37,0,.56-.15.56-.45a2.81,2.81,0,0,0-.28-1,.4.4,0,0,1-.08-.16c0-.08,0-.12,0-.12Zm-5-.49h4.77l-2.39-6Z"/><path class="cls-1" d="M129.6,41.63v-.18h8.08a19.08,19.08,0,0,1,4.88.49,8.73,8.73,0,0,1,3.12,1.52,7.49,7.49,0,0,1,2.1,2.66,8.28,8.28,0,0,1,.78,3.62,9.4,9.4,0,0,1-.81,3.79,10.05,10.05,0,0,1-2.19,3.21,7.53,7.53,0,0,1-2.93,1.84,16.67,16.67,0,0,1-4.75.5H129.6V58.9h.21a.83.83,0,0,0,.85-.52,5.84,5.84,0,0,0,.2-1.89V43.66a3.57,3.57,0,0,0-.24-1.73A1.3,1.3,0,0,0,129.6,41.63Zm6,.19h-2.7V55.5a3.41,3.41,0,0,0,.43,1.92,2.56,2.56,0,0,0,1.49.91,11.37,11.37,0,0,0,2.84.28q5,0,7-2.54a8.82,8.82,0,0,0,2-5.55,8.11,8.11,0,0,0-2.74-6.11Q141.14,41.82,135.6,41.82Z"/><path class="cls-1" d="M152.27,41.66v-.21h11.08v2.43h-.18a4.41,4.41,0,0,0-.61-1.59,1.9,1.9,0,0,0-1.2-.24h-5.81V50h5.39a2.12,2.12,0,0,0,1-.15.55.55,0,0,0,.23-.44h.18V51h-.18a.64.64,0,0,0-.28-.47,1.92,1.92,0,0,0-.82-.12h-5.54v5.44a5.05,5.05,0,0,0,.22,1.78,1.09,1.09,0,0,0,.73.68,6.1,6.1,0,0,0,1.5.14h3.1a10.41,10.41,0,0,0,1.9-.1,1.5,1.5,0,0,0,.7-.4,2.82,2.82,0,0,0,.44-1.33h.18v2.42h-12V58.9a2,2,0,0,0,.93-.24c.21-.13.31-.47.31-1V43.41a3.65,3.65,0,0,0-.17-1.36C153.23,41.79,152.87,41.66,152.27,41.66Z"/><path class="cls-1" d="M183.62,41.45h2.78v.18A1.32,1.32,0,0,0,185,43.1c0,.2,0,.48.07.83l1.86,13.35a3.45,3.45,0,0,0,.37,1.28,1.18,1.18,0,0,0,.87.34v.18h-4V58.9a.68.68,0,0,0,.79-.76,5.59,5.59,0,0,0-.07-.7l-1.81-12.95L176.8,59.08h-.12l-6.36-14.56-1.79,13a4.7,4.7,0,0,0,0,.68c0,.46.26.69.8.69v.18H166.6V58.9a1.3,1.3,0,0,0,.78-.15.92.92,0,0,0,.27-.48,3.87,3.87,0,0,0,.15-.74l2-14.23a2.74,2.74,0,0,0-1-1.43,2.15,2.15,0,0,0-1-.24v-.18h3.33l6.19,14.42Z"/><path class="cls-1" d="M201.44,41.45h2.65v.18a1.94,1.94,0,0,0-.83.24,3.08,3.08,0,0,0-.74.84l-4.31,6.53v8.07a2.25,2.25,0,0,0,.25,1.28,1.41,1.41,0,0,0,1.1.31v.18h-4.71V58.9c.9.05,1.35-.3,1.35-1.07l0-.5V49.88l-4.32-7.15c-.46-.76-1-1.12-1.52-1.1v-.18h4.16v.18c-.39,0-.58.15-.58.44a1.61,1.61,0,0,0,.3.71l3.55,5.86,3.89-5.91a1.28,1.28,0,0,0,.24-.35A1.19,1.19,0,0,0,202,42c0-.27-.17-.4-.52-.4h-.07Z"/><path class="cls-1" d="M23.87,0H59.35V11.69A55.47,55.47,0,0,1,23.87,0Z"/><path class="cls-1" d="M0,59.35V57.21a55.28,55.28,0,0,0,33.27-1.67,55.67,55.67,0,0,0,26.08-20V59.35Z"/><path class="cls-1" d="M0,52.19V38.68A55.16,55.16,0,0,0,24.66,42,55.68,55.68,0,0,0,59.35,25.4v7.46A55.67,55.67,0,0,1,34,51.18,55.43,55.43,0,0,1,0,52.19Z"/><path class="cls-1" d="M0,33.54V17a55.27,55.27,0,0,0,17.82,8.26,55.62,55.62,0,0,0,41.53-5.44v4A55.56,55.56,0,0,1,26.49,38,55.4,55.4,0,0,1,0,33.54Z"/><path class="cls-1" d="M20.92,22.06A55.49,55.49,0,0,1,0,11.06V0H17.81A55.51,55.51,0,0,0,59.35,12.42v6.39A55.44,55.44,0,0,1,20.92,22.06Z"/></g></g></svg>