<svg xmlns="http://www.w3.org/2000/svg" viewBox="0 0 170.7 52.13"><defs><style>.cls-1{fill:#fff;}</style></defs><g id="Layer_2" data-name="Layer 2"><g id="Layer_1-2" data-name="Layer 1"><path class="cls-1" d="M61.66,0H72.9V3.3H69.1V23.13H65.46V3.3h-3.8Z"/><path class="cls-1" d="M78.12,23.13H74.49V0h3.63V9.91h4.13V0H86V23.13H82.25V13.22H78.12Z"/><path class="cls-1" d="M92.24,9.75h5v3.3h-5v6.78h6.27v3.3H88.6V0h9.91V3.3H92.24Z"/><path class="cls-1" d="M109.36,0V17.85c0,1.65.72,2.24,1.88,2.24s1.88-.59,1.88-2.24V0h3.44V17.62c0,3.7-1.85,5.81-5.42,5.81s-5.42-2.11-5.42-5.81V0Z"/><path class="cls-1" d="M126.64,23.13a7,7,0,0,1-.33-2.84V16.66c0-2.15-.73-2.94-2.38-2.94h-1.26v9.41H119V0h5.49c3.76,0,5.38,1.75,5.38,5.32V7.14c0,2.38-.76,3.93-2.38,4.69,1.82.76,2.42,2.51,2.42,4.93v3.57a6.84,6.84,0,0,0,.39,2.8Zm-4-19.83v7.11h1.43c1.35,0,2.18-.59,2.18-2.45V5.68c0-1.65-.56-2.38-1.85-2.38Z"/><path class="cls-1" d="M143.2,5.32v.83c0,2.38-.73,3.9-2.35,4.66,2,.76,2.71,2.51,2.71,4.95v1.89c0,3.57-1.88,5.48-5.52,5.48h-5.71V0h5.48C141.58,0,143.2,1.75,143.2,5.32ZM136,3.3V9.42h1.42c1.36,0,2.18-.6,2.18-2.45V5.68c0-1.65-.56-2.38-1.85-2.38Zm0,9.42v7.11H138c1.23,0,1.89-.56,1.89-2.28v-2c0-2.15-.7-2.81-2.35-2.81Z"/><path class="cls-1" d="M157.51,23.13h-3.67l-.63-4.19h-4.46l-.63,4.19h-3.33L148.49,0h5.32Zm-8.3-7.33h3.51L151,4.1Z"/><path class="cls-1" d="M162.43,6.38V23.13h-3.27V0h4.56l3.74,13.85V0h3.24V23.13H167Z"/><path class="cls-1" d="M65.3,39H70v3.3H65.3v9.55H61.66V28.73h9.62V32h-6Z"/><path class="cls-1" d="M84.37,51.86H80.7l-.63-4.19H75.61L75,51.86H71.65l3.7-23.13h5.32Zm-8.3-7.33h3.51l-1.75-11.7Z"/><path class="cls-1" d="M96.6,43.24v3.07c0,3.7-1.85,5.82-5.42,5.82S85.76,50,85.76,46.31v-12c0-3.7,1.85-5.81,5.42-5.81s5.42,2.11,5.42,5.81v2.25H93.16V34.05c0-1.65-.73-2.28-1.88-2.28s-1.89.63-1.89,2.28V46.54c0,1.66.73,2.25,1.89,2.25s1.88-.59,1.88-2.25v-3.3Z"/><path class="cls-1" d="M97.76,28.73H109V32h-3.8V51.86h-3.63V32h-3.8Z"/><path class="cls-1" d="M110.28,34.28c0-3.7,2-5.81,5.52-5.81s5.52,2.11,5.52,5.81v12c0,3.7-1.95,5.82-5.52,5.82s-5.52-2.12-5.52-5.82Zm3.64,12.26c0,1.66.72,2.28,1.88,2.28s1.88-.62,1.88-2.28V34.05c0-1.65-.72-2.28-1.88-2.28s-1.88.63-1.88,2.28Z"/><path class="cls-1" d="M131.27,51.86a7,7,0,0,1-.33-2.84V45.39c0-2.15-.73-2.94-2.38-2.94H127.3v9.41h-3.63V28.73h5.48c3.77,0,5.39,1.75,5.39,5.32v1.82c0,2.38-.76,3.93-2.38,4.69,1.82.76,2.41,2.51,2.41,4.93v3.57a6.81,6.81,0,0,0,.4,2.8ZM127.3,32v7.1h1.42c1.36,0,2.18-.59,2.18-2.44V34.41c0-1.65-.56-2.37-1.85-2.37Z"/><path class="cls-1" d="M140,44.2l-4.6-15.47h3.8L142,39.27l2.78-10.54h3.47l-4.6,15.47v7.66H140Z"/><path class="cls-1" d="M51.86,0V51.86H14.51L0,37.35V0ZM16.58,42.88a13.25,13.25,0,0,0,18.7,0l11.4-11.4-7.22-7.22-.33.34L25.93,37.8,12.73,24.6l-.33-.34L5.19,31.48Zm0-19.13a13.28,13.28,0,0,0,18.7,0l11.4-11.4L39.46,5.13c-.11.11-.22.23-.33.33l-13.2,13.2L12.73,5.46c-.11-.1-.22-.22-.33-.33L5.19,12.35Z"/></g></g></svg>