<svg xmlns="http://www.w3.org/2000/svg" viewBox="0 0 160.41 69.4"><defs><style>.cls-1,.cls-2{fill:#fff;}.cls-1{opacity:0.9;}</style></defs><g id="Layer_2" data-name="Layer 2"><g id="Layer_1-2" data-name="Layer 1"><path class="cls-1" d="M17.11,36.35C11,36.46,5.29,29,5.06,23.19c-1.22-11.46,8-21.33,19.33-21.81,8.61-.53,17,5.24,20.35,13a23.87,23.87,0,0,1-3.37,23.17,23.51,23.51,0,0,0,2.81-16.86C42.91,13.43,36.79,7.82,29.87,5.84,21.31,3,10.88,8.55,9.11,17.49,7.87,22.82,8.5,28.9,12.36,33.11c1.29,1.4,2.81,2.87,4.75,3.24Z"/><path class="cls-1" d="M37.08,21.37c3.31,5.14,0,13.9-4.78,17.19C23.23,45.67,10,43.07,3.57,33.73c-5-7-4.57-17.19.25-24.17A23.89,23.89,0,0,1,25.25.15,23.55,23.55,0,0,0,9.47,6.7c-5.5,4.94-7,13.1-5,20C6.57,35.48,16.8,41.38,25.32,38.15c5.18-1.77,10-5.53,11.52-11,.51-1.83.95-3.9.24-5.74Z"/><path class="cls-1" d="M14.92,11.79c3-5.33,12.27-6.54,17.43-3.85,10.53,4.67,14.46,17.6,9.22,27.64-3.85,7.73-13,12.11-21.46,11.12A23.9,23.9,0,0,1,1.74,32.2a23.52,23.52,0,0,0,13.2,10.86c6.94,2.54,14.85,0,20-5,6.74-6,7.15-17.8.29-23.8-4-3.74-9.58-6.24-15.15-5-1.86.41-3.89,1-5.19,2.49Z"/><path class="cls-2" d="M91.48,25c-.27-5.14-.6-11.32-.54-15.91h-.17C89.51,13.4,88,18,86.12,23.08L79.62,41H76l-6-17.55c-1.75-5.2-3.22-9.95-4.26-14.33h-.11c-.11,4.59-.39,10.77-.71,16.29l-1,15.8H59.44L62,4.33h6.07l6.29,17.82c1.53,4.54,2.79,8.58,3.72,12.41h.16c.93-3.72,2.24-7.76,3.88-12.41L88.69,4.33h6.07l2.3,36.84H92.41Z"/><path class="cls-2" d="M104.3,4.33h4.76V22.09h.16c1-1.42,2-2.73,2.9-3.93L123.38,4.33h5.91L116,20l14.37,21.21h-5.63L112.56,23.08l-3.5,4V41.17H104.3Z"/><path class="cls-2" d="M144.34,8.37H133.13v-4h27.28v4H149.15v32.8h-4.81Z"/><path class="cls-2" d="M12.91,61.82c-.08-1.41-.17-3.1-.15-4.36h0c-.34,1.18-.76,2.44-1.28,3.84L9.65,66.2h-1L7,61.39c-.48-1.43-.89-2.73-1.17-3.93h0c0,1.26-.11,2.95-.2,4.47l-.27,4.33H4.12l.7-10.11H6.49L8.21,61c.42,1.25.77,2.36,1,3.41h0c.25-1,.61-2.13,1.06-3.41l1.8-4.89H13.8l.63,10.11H13.16Z"/><path class="cls-2" d="M22.55,62.57a3.55,3.55,0,0,1-3.62,3.86,3.46,3.46,0,0,1-3.48-3.74,3.55,3.55,0,0,1,3.61-3.85A3.43,3.43,0,0,1,22.55,62.57Zm-5.76.08c0,1.59.91,2.79,2.21,2.79s2.2-1.19,2.2-2.82c0-1.23-.62-2.79-2.18-2.79S16.79,61.27,16.79,62.65Z"/><path class="cls-2" d="M30.28,55.61v8.78c0,.64,0,1.38.06,1.87H29.16L29.1,65h0a2.7,2.7,0,0,1-2.48,1.43c-1.75,0-3.1-1.49-3.1-3.69,0-2.42,1.48-3.9,3.25-3.9A2.42,2.42,0,0,1,28.93,60h0V55.61ZM29,62a2.14,2.14,0,0,0-.06-.56A1.93,1.93,0,0,0,27,59.87c-1.37,0-2.18,1.2-2.18,2.81s.72,2.68,2.15,2.68a2,2,0,0,0,1.93-1.57,2.08,2.08,0,0,0,.06-.57Z"/><path class="cls-2" d="M38.31,64.28q0,1.13.06,2H37.2l-.07-1.18h0a2.75,2.75,0,0,1-2.4,1.35c-1.14,0-2.51-.63-2.51-3.18V59h1.32v4c0,1.38.42,2.31,1.62,2.31a1.9,1.9,0,0,0,1.74-1.2,1.78,1.78,0,0,0,.12-.67V59h1.32Z"/><path class="cls-2" d="M40.17,55.61h1.32V66.26H40.17Z"/><path class="cls-2" d="M47.66,66.26l-.11-.91h0a2.72,2.72,0,0,1-2.22,1.08,2.07,2.07,0,0,1-2.22-2.09c0-1.75,1.56-2.71,4.36-2.7v-.15a1.49,1.49,0,0,0-1.65-1.68,3.63,3.63,0,0,0-1.89.54l-.3-.87A4.51,4.51,0,0,1,46,58.84c2.22,0,2.76,1.51,2.76,3v2.71a10.18,10.18,0,0,0,.12,1.74Zm-.2-3.7c-1.44,0-3.07.22-3.07,1.63a1.16,1.16,0,0,0,1.24,1.26,1.81,1.81,0,0,0,1.76-1.21,1.6,1.6,0,0,0,.07-.42Z"/><path class="cls-2" d="M50.65,61.27c0-.86,0-1.59-.06-2.27h1.15l0,1.43h.06a2.17,2.17,0,0,1,2-1.59,1.4,1.4,0,0,1,.37,0v1.25a1.93,1.93,0,0,0-.45-.05A1.86,1.86,0,0,0,52,61.78a3.71,3.71,0,0,0-.06.61v3.87h-1.3Z"/><path class="cls-2" d="M56.16,62.87a2.32,2.32,0,0,0,2.49,2.52,4.82,4.82,0,0,0,2-.37l.22.94a5.85,5.85,0,0,1-2.41.45,3.37,3.37,0,0,1-3.57-3.66c0-2.19,1.29-3.91,3.4-3.91,2.37,0,3,2.08,3,3.42,0,.27,0,.48,0,.61ZM60,61.93a1.89,1.89,0,0,0-1.83-2.15,2.19,2.19,0,0,0-2,2.15Z"/><path class="cls-2" d="M65.88,56.15h1.31V61h0c.27-.39.54-.75.8-1.08l3.09-3.8h1.62l-3.66,4.29L73,66.26H71.48l-3.33-5-1,1.11v3.85H65.88Z"/><path class="cls-2" d="M73.7,55.61H75V66.26H73.7Z"/><path class="cls-2" d="M78.48,57a.77.77,0,0,1-.84.81.78.78,0,0,1-.79-.81.8.8,0,0,1,.82-.82A.78.78,0,0,1,78.48,57ZM77,66.26V59h1.32v7.26Z"/><path class="cls-2" d="M80.3,61c0-.75,0-1.37-.06-2h1.15l.06,1.17h0a2.49,2.49,0,0,1,2.28-1.33,2.14,2.14,0,0,1,2,1.45h0a3,3,0,0,1,.81-.94,2.5,2.5,0,0,1,1.61-.51c1,0,2.38.63,2.38,3.15v4.27H89.37V62.15c0-1.39-.51-2.23-1.57-2.23a1.7,1.7,0,0,0-1.56,1.2,2.17,2.17,0,0,0-.11.66v4.48H84.84V61.91c0-1.15-.51-2-1.51-2a1.8,1.8,0,0,0-1.64,1.32,1.91,1.91,0,0,0-.1.64v4.38H80.3Z"/><path class="cls-2" d="M96.6,66.26l-.1-.91h0a2.69,2.69,0,0,1-2.22,1.08A2.07,2.07,0,0,1,92,64.34c0-1.75,1.56-2.71,4.37-2.7v-.15a1.5,1.5,0,0,0-1.65-1.68,3.6,3.6,0,0,0-1.89.54l-.3-.87a4.5,4.5,0,0,1,2.38-.64c2.22,0,2.76,1.51,2.76,3v2.71a10.18,10.18,0,0,0,.12,1.74Zm-.19-3.7c-1.44,0-3.08.22-3.08,1.63a1.17,1.17,0,0,0,1.25,1.26,1.81,1.81,0,0,0,1.75-1.21,1.3,1.3,0,0,0,.08-.42Z"/><path class="cls-2" d="M104.3,57.26h-3.07V56.15h7.48v1.11h-3.09v9H104.3Z"/><path class="cls-2" d="M108.75,61.27c0-.86,0-1.59-.06-2.27h1.16l0,1.43H110a2.18,2.18,0,0,1,2-1.59,1.48,1.48,0,0,1,.38,0v1.25a2,2,0,0,0-.45-.05,1.86,1.86,0,0,0-1.77,1.7,3.71,3.71,0,0,0-.06.61v3.87h-1.31Z"/><path class="cls-2" d="M114.11,62.87a2.32,2.32,0,0,0,2.49,2.52,4.82,4.82,0,0,0,2-.37l.22.94a5.85,5.85,0,0,1-2.41.45,3.37,3.37,0,0,1-3.57-3.66c0-2.19,1.29-3.91,3.4-3.91,2.37,0,3,2.08,3,3.42,0,.27,0,.48,0,.61Zm3.87-.94a1.89,1.89,0,0,0-1.83-2.15,2.19,2.19,0,0,0-2,2.15Z"/><path class="cls-2" d="M120.65,61c0-.75,0-1.37-.06-2h1.17l.08,1.2h0a2.67,2.67,0,0,1,2.4-1.36c1,0,2.56.6,2.56,3.09v4.33h-1.32V62.08c0-1.17-.43-2.15-1.68-2.15a1.89,1.89,0,0,0-1.77,1.35,1.93,1.93,0,0,0-.09.62v4.36h-1.32Z"/><path class="cls-2" d="M128.79,61c0-.75,0-1.37-.06-2h1.17l.08,1.2h0a2.67,2.67,0,0,1,2.4-1.36c1,0,2.56.6,2.56,3.09v4.33h-1.32V62.08c0-1.17-.43-2.15-1.68-2.15a1.89,1.89,0,0,0-1.77,1.35,1.93,1.93,0,0,0-.09.62v4.36h-1.32Z"/><path class="cls-2" d="M142.92,64.28c0,.75,0,1.41.06,2h-1.17l-.08-1.18h0a2.73,2.73,0,0,1-2.4,1.35c-1.14,0-2.5-.63-2.5-3.18V59h1.32v4c0,1.38.42,2.31,1.62,2.31a1.91,1.91,0,0,0,1.74-1.2,2,2,0,0,0,.12-.67V59h1.32Z"/><path class="cls-2" d="M144.84,61c0-.75,0-1.37-.06-2H146l.07,1.2h0a2.67,2.67,0,0,1,2.4-1.36c1,0,2.57.6,2.57,3.09v4.33H149.7V62.08c0-1.17-.44-2.15-1.68-2.15a1.88,1.88,0,0,0-1.77,1.35,1.93,1.93,0,0,0-.09.62v4.36h-1.32Z"/><path class="cls-2" d="M158.9,59c0,.53-.06,1.11-.06,2v4.21c0,1.67-.33,2.69-1,3.32a3.83,3.83,0,0,1-2.64.87,4.65,4.65,0,0,1-2.41-.6l.33-1a4.09,4.09,0,0,0,2.13.57c1.35,0,2.34-.7,2.34-2.53V65h0a2.61,2.61,0,0,1-2.31,1.21,3.25,3.25,0,0,1-3.09-3.54c0-2.46,1.6-3.85,3.27-3.85a2.4,2.4,0,0,1,2.26,1.26h0l.06-1.1Zm-1.37,2.87a1.87,1.87,0,0,0-.07-.6,1.91,1.91,0,0,0-1.85-1.4c-1.26,0-2.16,1.07-2.16,2.75,0,1.42.72,2.61,2.15,2.61a1.93,1.93,0,0,0,1.83-1.35,2.48,2.48,0,0,0,.1-.71Z"/></g></g></svg>