<svg xmlns="http://www.w3.org/2000/svg" viewBox="0 0 164.9 46.61"><defs><style>.cls-1{fill:#fff;}</style></defs><g id="Layer_2" data-name="Layer 2"><g id="Layer_1-2" data-name="Layer 1"><circle class="cls-1" cx="23.23" cy="3.11" r="3.11"/><path class="cls-1" d="M38.85,1.93,26.06,14.65l-3,3a7.1,7.1,0,0,0-.82-1.41,7.51,7.51,0,0,0-1.49-1.49,7.3,7.3,0,0,0-8.72,0c-1-1-2-1.92-2.92-2.86a11.33,11.33,0,0,1,14.59,0Z"/><circle class="cls-1" cx="3.11" cy="23.38" r="3.11"/><path class="cls-1" d="M7.52,13.39l7.13,7.16,3,3a7.1,7.1,0,0,0-1.41.82,7.51,7.51,0,0,0-1.49,1.49,7.3,7.3,0,0,0,0,8.72l-2.86,2.93a11.35,11.35,0,0,1,0-14.6L4.81,16.08Z"/><circle class="cls-1" cx="23.38" cy="43.5" r="3.11"/><path class="cls-1" d="M13.39,39.09,20.55,32l3-3a7.1,7.1,0,0,0,.82,1.41,7.51,7.51,0,0,0,1.49,1.49,7.3,7.3,0,0,0,8.72,0l2.93,2.86a11.35,11.35,0,0,1-14.6,0L16.08,41.8Z"/><circle class="cls-1" cx="43.5" cy="23.23" r="3.11"/><path class="cls-1" d="M39.09,33.22,32,26.06l-3-3a7.1,7.1,0,0,0,1.41-.82,7.51,7.51,0,0,0,1.49-1.49,7.3,7.3,0,0,0,0-8.72c1-1,1.92-2,2.86-2.92a11.33,11.33,0,0,1,0,14.59l7.07,6.84Z"/><path class="cls-1" d="M70.15,23.52h3.33V30.9a12.21,12.21,0,0,1-7.43,2.35c-5.89,0-10.23-4-10.23-9.52s4.34-9.52,10.28-9.52a10,10,0,0,1,7.63,3L71.5,19.34a7.15,7.15,0,0,0-5.23-2.12c-4,0-6.89,2.68-6.89,6.51s2.84,6.5,6.86,6.5a7.8,7.8,0,0,0,3.91-.95Z"/><path class="cls-1" d="M76.89,23.73c0-5.47,4.34-9.52,10.23-9.52s10.23,4,10.23,9.52S93,33.25,87.12,33.25,76.89,29.2,76.89,23.73Zm16.9,0a6.68,6.68,0,1,0-6.67,6.5A6.39,6.39,0,0,0,93.79,23.73Z"/><path class="cls-1" d="M116.07,30.08V33H99.87v-2.3l11.18-13.3h-11V14.47h15.66v2.3L104.54,30.08Z"/><path class="cls-1" d="M119.58,24.92V14.47h3.53V24.79c0,3.8,1.76,5.44,4.83,5.44s4.8-1.64,4.8-5.44V14.47h3.48V24.92c0,5.39-3.12,8.33-8.31,8.33S119.58,30.31,119.58,24.92Z"/><path class="cls-1" d="M158,28c0,3.17-2.55,5-7.43,5h-9.45V14.47H150c4.56,0,7,1.88,7,4.82a4.42,4.42,0,0,1-2.44,4.07A4.56,4.56,0,0,1,158,28ZM144.61,17.17v5.11h5c2.44,0,3.83-.85,3.83-2.54s-1.39-2.57-3.83-2.57Zm9.79,10.45c0-1.85-1.43-2.67-4.09-2.67h-5.7v5.34h5.7C153,30.29,154.4,29.47,154.4,27.62Z"/><path class="cls-1" d="M161.37,14.47h3.53V33h-3.53Z"/></g></g></svg>