<svg xmlns="http://www.w3.org/2000/svg" viewBox="0 0 153.85 43.8"><defs><style>.cls-1{fill:#fff;}</style></defs><g id="Layer_2" data-name="Layer 2"><g id="Layer_1-2" data-name="Layer 1"><path class="cls-1" d="M122,19.09l-.79,1.33c-.63,1-1.26,2.09-1.87,3.14a.45.45,0,0,1-.46.26c-.55,0-.39.08-.68-.41-.8-1.32-1.58-2.65-2.37-4l-.18-.28c-.1.06-.07.15-.08.22,0,1.18-.09,2.35-.15,3.53s-.11,2.49-.17,3.74c0,.15,0,.22-.21.21-.34,0-.67,0-1,0-.16,0-.18-.06-.18-.2.09-1.73.16-3.45.24-5.18.06-1.31.12-2.62.19-3.92,0-.27,0-.53,0-.8s.06-.16.17-.16h1.14c.12,0,.17.08.22.17l.78,1.32,2.07,3.55a.73.73,0,0,0,.16.23c.09,0,.11-.12.15-.19l2.8-4.79a.47.47,0,0,1,.5-.3,8.77,8.77,0,0,0,.89,0c.12,0,.18.05.19.17a2.11,2.11,0,0,0,0,.25c0,1.12.09,2.25.14,3.37.08,1.82.17,3.64.25,5.46,0,.26,0,.53.05.79s0,.23-.2.22c-.36,0-.71,0-1.07,0-.13,0-.19-.05-.19-.18s0-.1,0-.15c-.07-1.73-.13-3.46-.21-5.18A17.17,17.17,0,0,0,122,19.09Z"/><path class="cls-1" d="M70.73,20.19a5.23,5.23,0,0,0-10.27,1.5,8.42,8.42,0,0,0,.09,1,5.22,5.22,0,0,0,5.13,4.41,5,5,0,0,0,3.8-1.64A5.33,5.33,0,0,0,70.73,20.19Zm-2.08,4A3.38,3.38,0,0,1,66,25.7a3.6,3.6,0,0,1-3.83-2.82,4.78,4.78,0,0,1-.12-.57c0-.2,0-.4,0-.59a4.15,4.15,0,0,1,1.24-3.12,3.49,3.49,0,0,1,2.83-.92A3.67,3.67,0,0,1,69.34,21,4.36,4.36,0,0,1,68.65,24.17Z"/><path class="cls-1" d="M110,22.5l0-.05.2-.1a2.64,2.64,0,0,0,1.51-1.82,3.17,3.17,0,0,0,.11-1.06,2.72,2.72,0,0,0-1.63-2.5,4.11,4.11,0,0,0-1.82-.38h-3c-.42,0-.37-.05-.37.37,0,3.17,0,6.34,0,9.52a1.09,1.09,0,0,1,0,.18c0,.15,0,.2.2.19h.86c.42,0,.37,0,.37-.38V22.88c0-.24,0-.24.24-.24.51,0,1,0,1.53,0a.4.4,0,0,1,.42.26c.6,1.17,1.21,2.32,1.82,3.48a1.25,1.25,0,0,0,.26.44c.15.11.36,0,.54,0h1.12Zm-1.31-1.12c-.69,0-1.37,0-2.06,0-.16,0-.18-.08-.18-.21V18.1c0-.23,0-.24.21-.24.71,0,1.41,0,2.12,0a1.62,1.62,0,0,1,1.49,1.16,1.82,1.82,0,0,1-.39,1.85A1.65,1.65,0,0,1,108.73,21.38Z"/><path class="cls-1" d="M92.91,21.73v4.85c0,.27,0,.27-.27.27h-1c-.25,0-.26,0-.26-.25V22.42c0-.22,0-.22-.22-.22H86c-.21,0-.21,0-.21.26v3.47c0,.23,0,.47,0,.71s0,.22-.2.21q-.54,0-1.08,0c-.16,0-.22-.06-.2-.21V16.75c0-.12,0-.16.16-.16.38,0,.76,0,1.14,0,.16,0,.18.07.18.2v3.75c0,.34,0,.34.33.34h5c.32,0,.32,0,.32-.32V16.82c0-.22,0-.23.22-.23h1c.21,0,.22,0,.22.23v4.91Z"/><path class="cls-1" d="M134.49,26.53q-1.55-4-3.11-8c-.23-.59-.47-1.18-.69-1.77a.26.26,0,0,0-.29-.2c-.38,0-.76,0-1.14,0a.2.2,0,0,0-.24.18.54.54,0,0,1-.05.11l-3.78,9.68a.43.43,0,0,0-.07.29h1.25c.27,0,.27,0,.36-.26.29-.79.59-1.57.88-2.36.1-.29.09-.24.34-.25h3.71a.29.29,0,0,1,.33.23c.25.69.5,1.37.76,2,.07.19.08.45.24.56s.41,0,.62,0h1A.61.61,0,0,0,134.49,26.53Zm-6.35-3.81,1.66-4.48,1.65,4.48Z"/><path class="cls-1" d="M103.62,26.49c-.58-1.49-1.16-3-1.75-4.48-.67-1.71-1.33-3.41-2-5.11-.14-.35-.05-.31-.46-.31h-.89c-.35,0-.29,0-.39.26q-1.91,4.84-3.79,9.69c0,.09-.11.18,0,.31H95.5c.29,0,.26,0,.37-.25.3-.8.6-1.59.88-2.39a.3.3,0,0,1,.33-.23h3.69c.28,0,.28,0,.38.28l.12.32.75,2c0,.11.06.24.24.23h1.45A.64.64,0,0,0,103.62,26.49Zm-6.34-3.77,1.63-4.38H99c.53,1.46,1.07,2.91,1.61,4.39Z"/><path class="cls-1" d="M143.62,19.26c-.16-.2-.29-.37-.44-.53a3.29,3.29,0,0,0-2.85-1.05,3.37,3.37,0,0,0-3,2.49,4.53,4.53,0,0,0,.31,3.79,3.25,3.25,0,0,0,2.94,1.74,3.4,3.4,0,0,0,2.79-1.23c.28-.33.19-.34.56,0l.54.46c.2.17.2.17,0,.38a3.81,3.81,0,0,1-.69.7,5.09,5.09,0,0,1-3.72,1.1A4.88,4.88,0,0,1,137.4,26a5,5,0,0,1-1.78-3.09,5.84,5.84,0,0,1,.32-3.38,5.08,5.08,0,0,1,7.76-2.18,5,5,0,0,1,.85.87c.07.1.11.17,0,.26C144.24,18.72,143.94,19,143.62,19.26Z"/><path class="cls-1" d="M82.25,18.59a2.53,2.53,0,0,0-1-1.32,3.37,3.37,0,0,0-1.46-.61,5.58,5.58,0,0,0-.91-.07H76c-.39,0-.34,0-.34.35v9.74c0,.13,0,.17.18.17h1.1c.13,0,.2,0,.19-.17a1.47,1.47,0,0,1,0-.21V23.18c0-.41,0-.37.35-.37H79a4.88,4.88,0,0,0,.85-.07,2.91,2.91,0,0,0,2.51-2.21A3.76,3.76,0,0,0,82.25,18.59Zm-1.39,1.6a1.64,1.64,0,0,1-1.52,1.33,11.63,11.63,0,0,1-1.32,0h-.73c-.16,0-.22-.06-.22-.22,0-.59,0-1.18,0-1.78V18.09c0-.24,0-.24.26-.25h.91a9.17,9.17,0,0,1,1.14.05,1.68,1.68,0,0,1,1.5,1.66A2.29,2.29,0,0,1,80.86,20.19Z"/><path class="cls-1" d="M56.76,22.37V26.7c0,.1,0,.15-.15.15H55.45c-.12,0-.18,0-.17-.16V18.25c0-.41,0-.36-.36-.36h-3c-.28,0-.28,0-.28-.28v-.83c0-.13,0-.19.17-.18h8.32c.37,0,.34,0,.34.33s0,.51,0,.77,0,.2-.19.2H57.05c-.29,0-.29,0-.29.29Z"/><path class="cls-1" d="M145.33,16.59h1.53c.16,0,.19.12.26.22L149.05,20l.58.94a.8.8,0,0,0,.22-.28c.77-1.27,1.55-2.53,2.31-3.8a.45.45,0,0,1,.46-.26c.41,0,.82,0,1.23,0,0,.13-.07.2-.12.29-1.06,1.69-2.11,3.38-3.17,5.06a1.24,1.24,0,0,0-.21.72c0,1.26,0,2.52,0,3.78a1.09,1.09,0,0,1,0,.18c0,.22,0,.23-.21.23s-.72,0-1.08,0c-.17,0-.22-.06-.2-.21V22.53a.9.9,0,0,0-.13-.49q-1.59-2.53-3.17-5.08Z"/><path class="cls-1" d="M145.34,34v9.16c0,.39,0,.34-.34.35s-.81,0-1.22,0c-.13,0-.2,0-.18-.18V31.54a.86.86,0,0,0,0-.16c0-.18.06-.21.22-.21.45,0,.9,0,1.34,0a.41.41,0,0,1,.39.21l3.13,4.5,3.19,4.56.19.25c.08-.11,0-.21,0-.31V31.57c0-.4,0-.4.39-.4h1.12c.23,0,.23,0,.24.22V43.13c0,.4,0,.35-.36.36s-.77,0-1.15,0a.45.45,0,0,1-.44-.23Q149,39.12,146.12,35l-.72-1Z"/><path class="cls-1" d="M57.88,33.94V43a1.77,1.77,0,0,1,0,.23c0,.24,0,.24-.25.24-.42,0-.83,0-1.25,0-.22,0-.22,0-.23-.23V31.57c0-.44,0-.39.39-.39s.73,0,1.09,0a.52.52,0,0,1,.5.26c1,1.42,2,2.84,3,4.26l3.32,4.75c.06.09.09.2.24.25V31.53c0-.39,0-.35.34-.35h1.19c.15,0,.23,0,.21.19a1.34,1.34,0,0,0,0,.2V43.24c0,.24,0,.24-.25.24-.42,0-.84,0-1.25,0a.46.46,0,0,1-.45-.23c-1.41-2-2.84-4.07-4.26-6.1l-2.07-3A.69.69,0,0,0,57.88,33.94Z"/><path class="cls-1" d="M98.46,36.68l1-1.1,3.86-4.2a.54.54,0,0,1,.47-.21h1.71a.56.56,0,0,1-.17.26L101.23,36a.76.76,0,0,1-.09.09c-.12.11-.11.2,0,.33.43.59.85,1.2,1.27,1.8l3.52,5a.7.7,0,0,1,.17.29.62.62,0,0,1-.27,0c-.52,0-1,0-1.54,0a.45.45,0,0,1-.44-.23c-1.26-1.83-2.54-3.65-3.81-5.47a1.36,1.36,0,0,0-.24-.31l-1.29,1.39c-.11.11-.09.23-.09.36v3.91c0,.39,0,.34-.34.35s-.81,0-1.21,0c-.18,0-.23-.06-.22-.22a1.2,1.2,0,0,0,0-.19V31.57a1.62,1.62,0,0,0,0-.22c0-.12,0-.18.17-.18h1.44c.13,0,.17,0,.16.17v5.31Z"/><path class="cls-1" d="M141.9,43.16l-2.22-5.69-2.37-6c-.11-.27,0-.24-.36-.24h-1.28c-.26,0-.25-.06-.37.24l-4.62,11.82c0,.07-.09.15,0,.25h1.54c.35,0,.27,0,.38-.27l1.05-2.85c.15-.38.07-.32.48-.32h4.07c.2,0,.44-.07.59,0s.17.36.24.55c.32.87.64,1.74,1,2.61,0,.1,0,.24.21.24.6,0,1.21,0,1.81,0A.48.48,0,0,0,141.9,43.16Zm-7.64-4.62,2-5.36,2,5.36Z"/><path class="cls-1" d="M94.91,43.15c-.76-1.95-1.52-3.89-2.29-5.84l-2.29-5.86c-.13-.32,0-.27-.41-.27H88.7c-.35,0-.28,0-.41.28L83.73,43.13a.69.69,0,0,0-.1.36h1.56c.28,0,.28,0,.38-.28.35-1,.71-1.91,1.06-2.87.13-.35.1-.29.41-.29h4.42c.35,0,.3,0,.42.3L93,43.26c.06.16.13.24.31.23.57,0,1.14,0,1.72,0A.68.68,0,0,0,94.91,43.15Zm-7.64-4.62,2-5.35c.67,1.83,1.31,3.58,2,5.35Z"/><path class="cls-1" d="M112.84,40.49c.19.19.37.38.56.55a3.89,3.89,0,0,0,3.85,1,1.91,1.91,0,0,0,1.41-2.42,1.62,1.62,0,0,0-.77-1,6.26,6.26,0,0,0-1.9-.72,8.6,8.6,0,0,1-1.68-.51,4.21,4.21,0,0,1-1.28-.89,3.23,3.23,0,0,1,.68-4.94,4.6,4.6,0,0,1,2-.63,5.9,5.9,0,0,1,2.43.26,4,4,0,0,1,2,1.45L119,33.67l-.23-.22a3.47,3.47,0,0,0-3.27-.92,2,2,0,0,0-.86.41,1.57,1.57,0,0,0,0,2.45,3.35,3.35,0,0,0,1,.55c.51.17,1,.29,1.57.43a8.68,8.68,0,0,1,1.12.38,3.57,3.57,0,0,1,0,6.61,5,5,0,0,1-2.34.44,5.89,5.89,0,0,1-3.91-1.62c-.17-.16-.42-.32-.44-.53s.28-.31.44-.47Z"/><path class="cls-1" d="M84,34.2a3.22,3.22,0,0,0-1.75-2.49,4.22,4.22,0,0,0-2-.52c-1.38,0-2.76,0-4.14,0H76c-.13,0-.18,0-.17.17v12c0,.1,0,.16.15.16q.73,0,1.47,0c.12,0,.15-.06.15-.16V38.91c0-.25,0-.25.24-.25H79.8a6.26,6.26,0,0,0,1.49-.18,3.37,3.37,0,0,0,2.58-2.41A4.22,4.22,0,0,0,84,34.2Zm-1.81,1.27a2,2,0,0,1-1.73,1.61,5.36,5.36,0,0,1-.7.05c-.63,0-1.26,0-1.89,0-.17,0-.23-.05-.21-.22v-4c0-.23,0-.23.22-.23H80a2.75,2.75,0,0,1,.85.14,2,2,0,0,1,1.36,1.79A3.29,3.29,0,0,1,82.16,35.47Z"/><path class="cls-1" d="M125.91,38.09V32.87c0-.1,0-.14-.13-.14a1.77,1.77,0,0,1-.23,0h-3.78c-.25,0-.25,0-.25-.25s0-.75,0-1.12c0-.15,0-.22.2-.2h10.1c.27,0,.27,0,.28.28v1c0,.28,0,.28-.28.28-.47,0-.94,0-1.41,0H128c-.33,0-.31,0-.31.32V41.9c0,.45,0,.91,0,1.37,0,.17,0,.22-.22.22-.43,0-.87,0-1.31,0-.25,0-.26,0-.26-.27V38.09Z"/><path class="cls-1" d="M53.38,37.35v6c0,.12,0,.18-.16.17H51.78c-.15,0-.19-.07-.18-.2V31.56c0-.42-.05-.38.37-.38h1c.47,0,.41-.05.41.4Z"/><path class="cls-1" d="M109.51,37.34v5.8c0,.4,0,.34-.34.35H108c-.22,0-.22,0-.23-.23V31.55c0-.43,0-.37.38-.38h1.18c.22,0,.22,0,.23.23v5.93Z"/><path class="cls-1" d="M92.22,9.24V.66c0-.38,0-.35.35-.35h1.06c.15,0,.24,0,.22.21a1.21,1.21,0,0,0,0,.19V11.5c0,.43.05.38-.39.38s-.66,0-1,0a.47.47,0,0,1-.46-.24l-2.86-4.1c-1-1.47-2.06-2.95-3.1-4.42a2,2,0,0,0-.16-.22.68.68,0,0,0,0,.34v8.24c0,.44.05.39-.38.39H84.41c-.15,0-.21-.06-.19-.2V.69c0-.43,0-.38.38-.38s.67,0,1,0a.49.49,0,0,1,.48.25L89,4.73l3,4.32.15.2Z"/><path class="cls-1" d="M120.2,8.31A2.58,2.58,0,0,0,118.53,6a4.43,4.43,0,0,0-.72-.22c.21-.1.36-.16.5-.24a2.76,2.76,0,0,0,0-4.72A3.79,3.79,0,0,0,116.5.32c-1.35,0-2.7,0-4.06,0-.28,0-.28,0-.28.29v11c0,.29,0,.29.28.29h3.37a9.94,9.94,0,0,0,1.34-.07,4.45,4.45,0,0,0,1.6-.49,2.69,2.69,0,0,0,1.4-1.89A4.21,4.21,0,0,0,120.2,8.31Zm-6.43-4.86V2c0-.22,0-.23.23-.23h2.09a2.83,2.83,0,0,1,.71.1A1.41,1.41,0,0,1,118,3.11a1.58,1.58,0,0,1-.71,1.65,2.28,2.28,0,0,1-1.21.36c-.69,0-1.38,0-2.06,0-.16,0-.22,0-.22-.21C113.78,4.43,113.77,3.94,113.77,3.45Zm4.77,5.27a1.73,1.73,0,0,1-1.71,1.66,13,13,0,0,1-1.65.06H114c-.25,0-.26,0-.26-.26V6.81c0-.24,0-.25.25-.25.69,0,1.39,0,2.09,0a3.19,3.19,0,0,1,1.42.31A1.72,1.72,0,0,1,118.54,8.72Z"/><path class="cls-1" d="M106.51,8.32c0,.67,0,1.34,0,2a.53.53,0,0,1-.22.48A5.82,5.82,0,0,1,103.8,12a7.53,7.53,0,0,1-3.47,0,5.34,5.34,0,0,1-4.1-4.21,6.58,6.58,0,0,1,.46-4.51,5.79,5.79,0,0,1,8.51-2.18,6.2,6.2,0,0,1,1,1.06c.1.13.09.2,0,.3l-.88.75c-.11.11-.18.09-.27,0a5.85,5.85,0,0,0-.4-.47,3.92,3.92,0,0,0-6.38,1.15,5.09,5.09,0,0,0,0,4.55,3.86,3.86,0,0,0,3.57,2.26,5,5,0,0,0,2.23-.38,3.72,3.72,0,0,0,.65-.36.27.27,0,0,0,.14-.26c0-.66,0-1.33,0-2,0-.17-.07-.2-.22-.2-.62,0-1.25,0-1.87,0h-.22c-.09,0-.14,0-.14-.12,0-.4,0-.79,0-1.19,0-.09,0-.13.14-.13h3.72c.15,0,.23,0,.21.21a1.21,1.21,0,0,0,0,.19Z"/><path class="cls-1" d="M61.93,2.29l-1.07.92c-.11.09-.16,0-.23-.06a6.75,6.75,0,0,0-.62-.7,3.91,3.91,0,0,0-6,1,5.09,5.09,0,0,0-.2,4.85,3.87,3.87,0,0,0,3.63,2.33,5.12,5.12,0,0,0,2.05-.31l.39-.18c.57-.29.57-.29.57-.93V7.78c0-.38,0-.35-.37-.35H58.27c-.27,0-.27,0-.27-.27V6.25C58,6,58,6,58.25,6h3.5c.33,0,.31,0,.31.3,0,1.35,0,2.7,0,4.06a.54.54,0,0,1-.22.45A5.75,5.75,0,0,1,59.39,12a7.23,7.23,0,0,1-3.49,0,5.37,5.37,0,0,1-4.14-4.39A6.51,6.51,0,0,1,52.39,3,5.45,5.45,0,0,1,56.71.05,5.81,5.81,0,0,1,59.82.5,5.14,5.14,0,0,1,61.93,2.29Z"/><path class="cls-1" d="M131.57,11.53,129.1,5.2q-.91-2.33-1.82-4.65c-.12-.3-.13-.24-.36-.24H125.7a.29.29,0,0,0-.32.22C123.94,4.24,122.48,8,121,11.67c0,.06-.08.13,0,.21h1.39c.3,0,.3,0,.4-.27.32-.88.65-1.76,1-2.63.13-.35.08-.31.44-.31h4c.58,0,.43-.09.63.43.32.84.62,1.68.94,2.51.11.29,0,.27.39.27h1.25a.47.47,0,0,0,.3,0Zm-7.17-4.3q.93-2.49,1.84-5h.07c.61,1.64,1.21,3.29,1.83,5Z"/><path class="cls-1" d="M146.69,5.49l.68-.73C148.68,3.34,150,1.93,151.28.5a.56.56,0,0,1,.45-.2c.45,0,.9,0,1.35,0h.28c-.18.21-.32.38-.47.54l-3.58,3.92a.86.86,0,0,1-.13.14c-.09.08-.07.15,0,.24.21.28.4.56.6.84l3.93,5.59c.06.08.1.16.15.23s-.14.06-.2.06c-.5,0-1,0-1.5,0a.43.43,0,0,1-.4-.22l-3.59-5.15a.72.72,0,0,0-.23-.27c-.29.31-.56.64-.88.92a1.32,1.32,0,0,0-.43,1.13c0,1.07,0,2.14,0,3.21a1.61,1.61,0,0,0,0,.22c0,.11,0,.15-.15.15h-1.34c-.1,0-.16,0-.15-.14v-.22q0-5.41,0-10.83c0-.43-.06-.38.38-.38s.69,0,1,0,.23,0,.23.23v4.8A.16.16,0,0,0,146.69,5.49Z"/><path class="cls-1" d="M143,2.3,142,3.22c-.1.09-.15,0-.22,0a5.45,5.45,0,0,0-.38-.46,3.67,3.67,0,0,0-3.3-1.18,3.75,3.75,0,0,0-3.26,2.67,5.15,5.15,0,0,0,.25,4.29,3.63,3.63,0,0,0,3.25,2.07,3.84,3.84,0,0,0,3.27-1.37c.29-.34.29-.34.65,0s.44.38.67.56.13.16,0,.28a5.16,5.16,0,0,1-1,1,5.72,5.72,0,0,1-3.89,1.15,5.47,5.47,0,0,1-3.86-1.85,5.67,5.67,0,0,1-1.37-2.9,6.72,6.72,0,0,1,.49-4A5.45,5.45,0,0,1,137.51.09a5.44,5.44,0,0,1,4.71,1.28A4.92,4.92,0,0,1,143,2.3Z"/><path class="cls-1" d="M73.15,9.79c.1-.27.18-.47.26-.67,1-2.83,2.09-5.67,3.15-8.51.12-.33,0-.3.43-.3h1.13a.5.5,0,0,1,.27,0,.46.46,0,0,1-.07.26q-2.13,5.5-4.25,11c-.14.35-.1.29-.42.29H72.56c-.36,0-.3,0-.43-.28-.56-1.44-1.11-2.89-1.67-4.33L67.89.64a.56.56,0,0,1-.07-.33h.57c.34,0,.67,0,1,0s.27.07.33.24q.84,2.3,1.7,4.59l1.63,4.42C73.07,9.61,73.1,9.66,73.15,9.79Z"/><path class="cls-1" d="M79.91,6.06V.48c0-.12,0-.17.16-.17h1.34c.12,0,.18,0,.17.16v11c0,.41,0,.37-.36.37H80.09c-.13,0-.19,0-.18-.17a1.61,1.61,0,0,0,0-.22Z"/><path class="cls-1" d="M64.61,6.06V.54c0-.22,0-.23.22-.23.4,0,.81,0,1.21,0,.24,0,.24,0,.24.25v11c0,.4,0,.37-.36.37H65c-.37,0-.34,0-.34-.33V6.06Z"/><path class="cls-1" d="M46.24,3.86a2.78,2.78,0,0,0-.06-.64A3.29,3.29,0,0,0,41.32,1a3.19,3.19,0,0,0-1.69,2.91c0,3.39,0,6.78,0,10.16a.66.66,0,0,1-.15.45L38.2,16.1l-.25.32c-.1-.06-.09-.16-.12-.24a2.41,2.41,0,0,0-1.28-1.38,2.69,2.69,0,0,0-3.06.64c-2.07,2.26-4.17,4.49-6.26,6.73l-4.12,4.42c-.09-.11-.19-.24-.3-.36L12.74,15.44a2.59,2.59,0,0,0-2-.87A2.5,2.5,0,0,0,8.4,16.22a1.07,1.07,0,0,1-.07.19c-.09,0-.13-.11-.18-.17-.46-.58-.91-1.17-1.37-1.74a.71.71,0,0,1-.17-.5V3.91a3.35,3.35,0,0,0-.06-.71A3.27,3.27,0,0,0,2.78.58,3.28,3.28,0,0,0,0,3.89V17.72a1.31,1.31,0,0,0,.17.67L5,27.17a2.06,2.06,0,0,0,.42.55c2.06,2.06,4.12,4.13,6.18,6.18a2.67,2.67,0,0,1,.83,2c0,2.19,0,4.38,0,6.58a1.76,1.76,0,0,0,0,.23.84.84,0,0,0,.66.76,1.7,1.7,0,0,0,.39,0H32.81a1.61,1.61,0,0,0,.44-.05.8.8,0,0,0,.6-.72,2.26,2.26,0,0,0,0-.26c0-2.18,0-4.35,0-6.53a2.74,2.74,0,0,1,.86-2l6.22-6.22a1.67,1.67,0,0,0,.34-.45l4.8-8.8a1.31,1.31,0,0,0,.17-.67ZM44.58,17.35a1.2,1.2,0,0,1-.14.59c-1.51,2.74-3,5.49-4.5,8.24a2.12,2.12,0,0,1-.38.51c-2,2-4,4-6,6a4.24,4.24,0,0,0-1.24,2.23.52.52,0,0,1-.06.15v6.72H14V35a4.07,4.07,0,0,0-1.16-2.21L6.64,26.64a2,2,0,0,1-.31-.41Q4.07,22,1.77,17.87a.9.9,0,0,1-.12-.46q0-6.73,0-13.47A1.65,1.65,0,1,1,5,3.74,2.17,2.17,0,0,1,5,4c0,3.46,0,6.93,0,10.39a1.26,1.26,0,0,0,.29.83l8.81,11.22a.39.39,0,0,1,.08.1c.06.08.11.09.19,0l1.19-.93a.71.71,0,0,0-.15-.22l-5.19-6.61L10,18.6a.36.36,0,0,1-.1-.28c0-.4,0-.81,0-1.21a.83.83,0,0,1,.52-.82,1,1,0,0,1,1,.2c.23.26.48.52.72.77l7.16,7.68c.74.79,1.47,1.59,2.22,2.38a2.52,2.52,0,0,1,.73,1.87v5.59a1.93,1.93,0,0,1,0,.24H24a.66.66,0,0,1,0-.2v-5.7a2.44,2.44,0,0,1,.68-1.73l5.7-6.12,4.31-4.61.22-.23a.91.91,0,0,1,1.43.36,1.06,1.06,0,0,1,0,.31c0,.38,0,.77,0,1.16a.66.66,0,0,1-.15.42c-1.76,2.24-3.52,4.47-5.27,6.71-.22.28-.2.21,0,.41l.91.71c.17.13.17.13.3,0L34,24.15q3.48-4.42,7-8.86a1.46,1.46,0,0,0,.33-1c0-3.46,0-6.93,0-10.39A1.63,1.63,0,0,1,42,2.49a1.55,1.55,0,0,1,1.68-.12,1.57,1.57,0,0,1,.9,1.41V17.35Z"/><path class="cls-1" d="M14,35h0s0,0,0,0l0,0,.31,0h7.93v0Z"/><path class="cls-1" d="M30.64,14.05A3,3,0,0,0,27,11.51l-4.74,1.1-1,.23c0-.05,0-.07,0-.1a3.65,3.65,0,0,1,.43-1.91.29.29,0,0,1,.24-.16L25,9.94a4.14,4.14,0,0,0,1.8-.84,4.32,4.32,0,0,0,1.65-4.37c-.19-1-.47-2-.7-3-.09-.38-.17-.75-.28-1.19a2.86,2.86,0,0,1-.16.25l-1,1.64A3.61,3.61,0,0,1,24,4.07a4.58,4.58,0,0,0-.49.15A4.68,4.68,0,0,0,20.42,9.3c0,.37.16.72.22,1.08a.29.29,0,0,1,0,.18,7.11,7.11,0,0,0-.34.95,3.72,3.72,0,0,0-.31-.22.58.58,0,0,1-.31-.44,3.59,3.59,0,0,0-2.14-2.51,3.55,3.55,0,0,0-2.25-.21,3,3,0,0,1-1.4,0L12,7.65c-.05,0-.11-.05-.16,0,.2.88.4,1.75.61,2.63a3.46,3.46,0,0,0,4.2,2.62l2.78-.65c.09,0,.18,0,.26,0a2.21,2.21,0,0,1,.51.77.5.5,0,0,1-.2.08,3,3,0,0,0,1.5,5.75l3.21-.74c1.25-.29,2.5-.57,3.74-.88A3,3,0,0,0,30.64,14.05ZM27.21,3.73a9.37,9.37,0,0,1,.35,1.72,3.43,3.43,0,0,1-2.47,3.44c-.61.18-1.25.29-1.87.44a0,0,0,0,1,0,0v0h0A9.6,9.6,0,0,0,27.21,3.73ZM21.37,8.44a3.7,3.7,0,0,1,2.74-3.36,4.82,4.82,0,0,0,1.81-.79c0,.09,0,.15-.05.22a8.3,8.3,0,0,1-3.22,3.94,5.9,5.9,0,0,0-1.12.87l-.08,0A2.9,2.9,0,0,1,21.37,8.44ZM16.24,12a2.45,2.45,0,0,1-2.82-1.83c0-.16-.07-.32-.11-.5l.16.09a11.91,11.91,0,0,0,4.11,1.84s.15,0,.15.06A13.8,13.8,0,0,1,16.24,12ZM14.6,9.23c.49,0,1-.16,1.44-.19a2.69,2.69,0,0,1,2.57,1.7A10.44,10.44,0,0,1,14.6,9.23Zm9.51,8-2.88.66a1.31,1.31,0,0,1-.34,0,2,2,0,0,1-.53-3.87c.95-.24,1.9-.45,2.86-.67.15,0,.16,0,.2.17l.63,2.69.18.8C24.27,17.19,24.23,17.23,24.11,17.26Zm4.1-1c-.72.19-1.45.34-2.17.51l-.61.14c-.19.05-.19,0-.23-.15-.17-.69-.33-1.39-.49-2.08-.12-.51-.23-1-.36-1.57l1-.24c.66-.15,1.3-.31,2-.44a2,2,0,0,1,.89,3.83Z"/><path class="cls-1" d="M14,35.09v0s0,.08,0,.13h0a.16.16,0,0,1,0-.17Z"/><path class="cls-1" d="M25,39.52l-.06-.06a.22.22,0,0,1,.11-.12s0,0,0,.08A.13.13,0,0,1,25,39.52Z"/><path class="cls-1" d="M21.62,35.85v-.06s.06,0,.07,0S21.65,35.83,21.62,35.85Z"/><path class="cls-1" d="M25,39.42v-.08s0,0,0,0S25.06,39.39,25,39.42Z"/><path class="cls-1" d="M14,35v6.79H32.23V35Zm10.39,1.22.35.37.46-.23-.24.45.35.36-.5-.08-.23.44-.07-.5L24,37l.45-.22Zm-1.19,4.81a2.71,2.71,0,0,1-.86-5.27,2.42,2.42,0,0,0-1,1.94,2.45,2.45,0,0,0,4.39,1.5A2.73,2.73,0,0,1,23.18,41.05Z"/></g></g></svg>