<svg xmlns="http://www.w3.org/2000/svg" viewBox="0 0 160 65.55"><defs><style>.cls-1{fill:#fff;}</style></defs><g id="Layer_2" data-name="Layer 2"><g id="Layer_1-2" data-name="Layer 1"><path class="cls-1" d="M29.49,0V33.76L2.72,0H0V38.8H2.77V4.32L30.1,38.8h2.16V0Z"/><path class="cls-1" d="M38.47,27.82V10.53h2.71v16.8c0,5.82,3.27,9.64,9,9.64A9.69,9.69,0,0,0,60,27.41c0-.18,0-.35,0-.53V10.53h2.71V38.8H60V33.53a11.06,11.06,0,0,1-10.2,5.93c-7.15,0-11.31-4.87-11.31-11.64"/><path class="cls-1" d="M67.37,20v-.1c0-10.4,7.63-19.6,19-19.6a19.93,19.93,0,0,1,14.13,5L97.74,8.54A16.12,16.12,0,0,0,86.21,4.21c-8.39,0-14.4,7.09-14.4,15.54v.11c0,9,5.8,15.75,15,15.75a17.82,17.82,0,0,0,10.93-3.78V22.4H86.21V18.55h15.64V33.66a23,23,0,0,1-15.21,5.79c-11.91,0-19.27-8.66-19.27-19.49"/><path class="cls-1" d="M105,24.9v-.11c0-8.07,5.69-14.56,13.43-14.56,8.28,0,13,6.6,13,14.78a10.17,10.17,0,0,1-.06,1.35H109.22c.59,6.06,4.87,9.47,9.85,9.47a11.57,11.57,0,0,0,8.82-3.95l2.6,2.33A14.44,14.44,0,0,1,119,39.46c-7.69,0-14-5.9-14-14.56m22.25-1.63c-.43-5.08-3.35-9.52-8.93-9.52-4.87,0-8.56,4.06-9.09,9.52Z"/><path class="cls-1" d="M134.71,10.82h4.17v4.87a10.58,10.58,0,0,1,9.58-5.46c6.76,0,10.72,4.54,10.72,11.2V38.81H155V22.46c0-5.2-2.82-8.45-7.74-8.45s-8.39,3.52-8.39,8.77v16h-4.17Z"/><path class="cls-1" d="M104.17,54a8.55,8.55,0,0,0-16.12-.2l7.86-3.84Z"/><path class="cls-1" d="M105.87,57.31l-10-4.88-10,4.94L86,60.79l2.13-1a8.54,8.54,0,0,0,15.9.14l1.85.91Zm-9.79,5.12a5.72,5.72,0,0,1-5.44-3.93l5.27-2.58,5.56,2.72A5.74,5.74,0,0,1,96.08,62.43Z"/><path class="cls-1" d="M80.64,65.15V58.38h-7.7v6.77H69.1V48h3.84v7.16h7.7V48h3.84V65.14Z"/><path class="cls-1" d="M122.8,65.15V53.56l-4.52,9.84h-2.5l-4.51-9.84V65.15h-3.48V48h4.3l5,10.5L122,48h4.28V65.15Z"/><path class="cls-1" d="M133.84,51.18v3.73h8.21v3.22h-8.21v3.8h9.38v3.22H130V48H143v3.21Z"/><path class="cls-1" d="M148.59,65a9.48,9.48,0,0,1-3.1-1.46l1.38-3a9.45,9.45,0,0,0,2.66,1.32,10.2,10.2,0,0,0,3.1.49,4.88,4.88,0,0,0,2.54-.51,1.52,1.52,0,0,0,.82-1.36,1.3,1.3,0,0,0-.48-1,3.76,3.76,0,0,0-1.25-.66c-.51-.16-1.19-.35-2.06-.55a28.4,28.4,0,0,1-3.27-.94,5.38,5.38,0,0,1-2.18-1.53,4.08,4.08,0,0,1-.91-2.79,4.93,4.93,0,0,1,.82-2.76,5.49,5.49,0,0,1,2.49-1.95,10,10,0,0,1,4-.73,13.87,13.87,0,0,1,3.27.4A9.85,9.85,0,0,1,159.26,49L158,52.11a9.69,9.69,0,0,0-4.83-1.38,4.54,4.54,0,0,0-2.51.55,1.67,1.67,0,0,0-.81,1.45,1.4,1.4,0,0,0,.93,1.33,13.65,13.65,0,0,0,2.86.86,30.43,30.43,0,0,1,3.26.95,5.51,5.51,0,0,1,2.19,1.5,4,4,0,0,1,.91,2.77,4.86,4.86,0,0,1-.84,2.73,5.55,5.55,0,0,1-2.51,1.95,10.25,10.25,0,0,1-4.06.73,14.58,14.58,0,0,1-4-.56"/></g></g></svg>